<svg xmlns="http://www.w3.org/2000/svg" width="24" height="24" viewBox="0 0 24 24">
    <g fill="none" fill-rule="evenodd">
        <g fill="#C9CCD6" fill-rule="nonzero">
            <g>
                <g>
                    <path d="M20.485 3.515c.39.39.39 1.023 0 1.414L18.18 7.233c1.406.989 2.487 2.396 3.213 4.21.143.358.143.756 0 1.114-1.57 3.924-4.8 5.943-9.393 5.943-1.62 0-3.07-.251-4.338-.748l-2.733 2.733c-.39.39-1.024.39-1.414 0-.39-.39-.39-1.023 0-1.414l2.305-2.304c-1.406-.989-2.487-2.396-3.213-4.21-.143-.358-.143-.756 0-1.114C4.177 7.519 7.407 5.5 12 5.5c1.62 0 3.07.251 4.338.748l2.733-2.733c.39-.39 1.024-.39 1.414 0zm-5.039 6.453l-5.478 5.478c.596.352 1.29.554 2.032.554 2.21 0 4-1.79 4-4 0-.742-.202-1.437-.554-2.032zM12 8c-2.21 0-4 1.79-4 4 0 .741.202 1.436.553 2.031l5.479-5.477C13.436 8.202 12.742 8 12 8z" transform="translate(-1189 -401) translate(914 211) translate(275 190)"/>
                </g>
            </g>
        </g>
    </g>
</svg>
