<svg xmlns="http://www.w3.org/2000/svg" width="24" height="24" viewBox="0 0 24 24">
    <g fill="none" fill-rule="evenodd">
        <g stroke="#C9CCD6" stroke-width="1.5">
            <g>
                <g transform="translate(-1189 -331) translate(914 211) translate(275 120)">
                    <path stroke-linejoin="round" d="M12 6.25c2.162 0 3.958.464 5.397 1.364 1.462.914 2.568 2.278 3.3 4.107-.732 2.387-1.838 3.751-3.3 4.665-1.439.9-3.235 1.364-5.397 1.364-2.162 0-3.958-.464-5.397-1.364-1.462-.914-2.568-2.278-3.3-4.107.732-2.387 1.838-3.751 3.3-4.665C8.042 6.714 9.838 6.25 12 6.25z"/>
                    <circle cx="12" cy="12" r="3.25"/>
                </g>
            </g>
        </g>
    </g>
</svg>
