<svg xmlns="http://www.w3.org/2000/svg" width="20" height="20" viewBox="0 0 20 20">
    <g fill="none" fill-rule="evenodd">
        <g fill="#67757C" fill-rule="nonzero">
            <g>
                <g>
                    <g>
                        <path d="M10 18.118c.239 0 .472-.043.7-.13.228-.087.418-.217.57-.39.173-.152.303-.342.39-.57.087-.228.13-.461.13-.7.109-.022.217-.054.326-.098l.325-.13c.109-.043.212-.087.31-.13.097-.043.2-.098.309-.163.174.174.369.304.586.39.217.088.445.131.683.131.24 0 .467-.043.684-.13.217-.087.412-.217.586-.39.087-.088.163-.18.228-.277.065-.098.12-.201.163-.31.043-.108.076-.222.097-.341.022-.12.033-.234.033-.342 0-.13-.011-.25-.033-.358-.021-.109-.054-.217-.097-.326-.044-.108-.098-.211-.163-.31-.065-.097-.141-.189-.228-.276.065-.108.12-.211.163-.309.043-.098.087-.2.13-.31l.13-.325c.044-.108.076-.217.098-.325.239 0 .472-.044.7-.13.228-.087.417-.218.57-.391.151-.152.276-.342.374-.57.097-.228.146-.461.146-.7 0-.238-.049-.472-.146-.7-.098-.227-.223-.417-.375-.57-.152-.173-.341-.303-.57-.39-.227-.087-.46-.13-.7-.13-.02-.109-.053-.217-.097-.326l-.13-.325c-.043-.109-.087-.212-.13-.31-.044-.097-.098-.2-.163-.309.087-.086.163-.179.228-.276.065-.098.12-.201.163-.31.043-.108.076-.217.097-.325.022-.109.033-.228.033-.358 0-.109-.011-.223-.033-.342-.021-.12-.054-.233-.097-.342-.044-.108-.098-.211-.163-.309s-.141-.19-.228-.277c-.174-.173-.369-.303-.586-.39-.217-.087-.445-.13-.684-.13-.238 0-.466.043-.683.13-.217.087-.412.217-.586.39-.109-.065-.212-.119-.31-.162-.097-.044-.2-.087-.309-.13l-.325-.13c-.109-.044-.217-.077-.326-.098 0-.24-.043-.472-.13-.7-.087-.228-.217-.418-.39-.57-.152-.174-.342-.304-.57-.39-.228-.087-.461-.13-.7-.13-.239 0-.472.043-.7.13-.228.086-.418.216-.57.39-.173.152-.303.342-.39.57-.087.228-.13.46-.13.7-.109.021-.217.054-.326.097l-.325.13c-.109.044-.212.087-.31.13-.097.044-.2.098-.309.163-.174-.173-.369-.303-.586-.39-.217-.087-.445-.13-.683-.13-.24 0-.467.043-.684.13-.217.087-.412.217-.586.39-.087.087-.163.18-.228.277-.065.098-.12.2-.163.31-.043.108-.076.222-.097.341-.022.12-.033.233-.033.342 0 .13.011.25.033.358.021.108.054.217.097.325.044.109.098.212.163.31.065.097.141.19.228.276-.065.109-.12.212-.163.31-.043.097-.087.2-.13.309l-.13.325c-.044.109-.076.217-.098.326-.239 0-.472.043-.7.13-.228.087-.417.217-.57.39-.173.153-.303.343-.39.57-.087.228-.13.462-.13.7 0 .239.043.472.13.7.087.228.217.418.39.57.153.173.342.304.57.39.228.087.461.13.7.13.022.11.054.218.098.326l.13.326c.043.108.087.211.13.309.044.098.098.2.163.31-.087.086-.163.178-.228.276-.065.098-.12.2-.163.31-.043.108-.076.216-.097.325-.022.108-.033.228-.033.358 0 .108.011.222.033.342.021.119.054.233.097.341.044.109.098.212.163.31.065.097.141.19.228.276.174.174.369.304.586.39.217.088.445.131.684.131.238 0 .466-.043.683-.13.217-.087.412-.217.586-.39.109.064.212.119.31.162.097.043.2.087.309.13l.325.13c.109.044.217.076.326.098 0 .239.043.472.13.7.087.228.217.418.39.57.152.173.342.303.57.39.228.087.461.13.7.13zm0-.553c-.174 0-.336-.032-.488-.098-.152-.065-.282-.151-.39-.26-.11-.108-.196-.239-.261-.39-.065-.153-.098-.315-.098-.489v-.163c.022-.065.01-.13-.033-.195-.043-.065-.097-.108-.162-.13-.152-.022-.293-.054-.423-.098-.13-.043-.26-.097-.391-.163-.13-.043-.255-.097-.374-.162-.12-.065-.245-.13-.375-.196-.021-.021-.043-.038-.065-.048-.022-.011-.043-.017-.065-.017-.043 0-.087.011-.13.033-.044.022-.076.054-.098.097-.022 0-.038.011-.049.033l-.049.098c-.108.108-.238.195-.39.26-.152.065-.315.098-.488.098-.152 0-.304-.033-.456-.098-.152-.065-.293-.152-.423-.26-.109-.13-.196-.272-.26-.424-.066-.151-.098-.303-.098-.455 0-.174.032-.337.097-.489.065-.151.163-.292.293-.423.022 0 .044-.005.065-.016.022-.01.033-.027.033-.049.065-.043.103-.097.114-.163.01-.065-.006-.13-.049-.195-.065-.13-.13-.255-.195-.374-.065-.12-.12-.244-.163-.375-.065-.13-.12-.265-.163-.406-.043-.142-.076-.277-.098-.407-.021-.065-.07-.114-.146-.147-.076-.032-.146-.049-.212-.049h-.13c-.173 0-.336-.032-.488-.097-.152-.065-.282-.152-.39-.26-.11-.11-.196-.24-.261-.391-.065-.152-.098-.315-.098-.489 0-.173.033-.336.098-.488.065-.152.152-.282.26-.39.109-.11.239-.196.39-.261.153-.065.316-.098.49-.098h.162c.065.022.13.011.195-.032.065-.044.109-.098.13-.163.022-.152.055-.293.098-.423.044-.13.098-.26.163-.39.043-.131.098-.256.163-.375.065-.12.13-.244.195-.374.043-.066.06-.13.049-.196-.011-.065-.049-.12-.114-.163 0-.021-.011-.038-.033-.048l-.097-.05c-.109-.108-.196-.238-.26-.39-.066-.152-.098-.314-.098-.488 0-.152.032-.304.097-.456.065-.152.152-.293.26-.423.13-.109.272-.195.424-.26.152-.066.304-.098.456-.098.173 0 .336.032.488.098.152.065.293.162.423.293 0 .021.005.043.016.065.011.021.027.032.05.032.043.065.097.103.162.114.065.011.13-.005.195-.049.13-.065.255-.13.375-.195.119-.065.244-.12.374-.163.13-.065.266-.12.407-.163.14-.043.277-.075.407-.097.065-.022.114-.07.146-.147.033-.076.049-.146.049-.211v-.13c0-.174.033-.337.098-.489.065-.152.152-.282.26-.39.109-.109.239-.196.39-.26.153-.066.315-.098.489-.098s.336.032.488.097c.152.065.282.152.39.26.11.11.196.24.261.391.065.152.098.315.098.489v.162c-.022.065-.01.13.033.196.043.065.097.108.162.13.152.022.293.054.423.097.13.044.26.098.391.163.13.044.255.098.374.163.12.065.245.13.375.195.065.044.13.06.195.05.065-.012.12-.05.163-.115.022 0 .038-.01.049-.032L13.45 5c.108-.109.238-.195.39-.26.152-.066.315-.098.488-.098.152 0 .304.032.456.098.152.065.293.151.423.26.109.13.196.271.26.423.066.152.098.304.098.456 0 .174-.032.336-.097.488-.065.152-.163.293-.293.423-.022 0-.038.006-.049.017l-.049.048c-.065.044-.103.098-.114.163-.01.065.006.13.049.196.065.13.13.255.195.374.065.12.12.244.163.374.065.13.12.26.163.39.043.131.076.272.098.424.021.065.07.114.146.147.076.032.146.048.212.048h.13c.173 0 .336.033.488.098.152.065.282.152.39.26.11.109.196.24.261.391.065.152.098.315.098.488 0 .174-.033.337-.098.489-.065.152-.152.282-.26.39-.109.109-.239.196-.39.26-.153.066-.316.098-.49.098h-.162c-.065-.021-.13-.01-.195.033-.065.043-.109.098-.13.163-.022.152-.055.293-.098.423-.044.13-.098.26-.163.39-.043.13-.098.255-.163.375s-.13.244-.195.374c-.043.065-.06.13-.049.195.011.066.049.12.114.163 0 .022.011.038.033.049l.097.049c.109.108.196.239.26.39.066.152.098.315.098.489 0 .152-.032.304-.097.455-.065.152-.152.293-.26.424-.13.108-.272.195-.424.26-.152.065-.304.098-.456.098-.173 0-.336-.033-.488-.098-.152-.065-.293-.163-.423-.293 0-.022-.005-.043-.016-.065-.011-.022-.027-.033-.05-.033-.043-.065-.097-.103-.162-.113-.065-.011-.13.005-.195.048-.13.065-.255.13-.375.196-.119.065-.244.119-.374.162-.13.066-.26.12-.39.163-.13.044-.272.076-.424.098-.065.022-.114.07-.146.146-.033.076-.049.147-.049.212v.13c0 .174-.033.336-.098.488-.065.152-.152.283-.26.391-.109.109-.239.195-.39.26-.153.066-.315.098-.489.098zm0-2.897c.608 0 1.183-.12 1.725-.358.543-.239 1.02-.553 1.433-.944.39-.412.705-.89.944-1.432.238-.543.358-1.118.358-1.726 0-.607-.12-1.182-.358-1.725-.24-.542-.554-1.009-.944-1.4-.413-.412-.89-.738-1.433-.976-.542-.239-1.117-.358-1.725-.358-.608 0-1.183.12-1.725.358-.543.238-1.01.564-1.4.976-.412.391-.738.858-.977 1.4-.238.543-.358 1.118-.358 1.725 0 .608.12 1.183.358 1.726.24.542.565 1.02.977 1.432.39.39.857.705 1.4.944.542.239 1.117.358 1.725.358zm0-.586c-.543 0-1.047-.098-1.514-.293-.466-.195-.873-.477-1.22-.846l-.153-.153c-.295-.312-.526-.668-.694-1.068-.195-.467-.293-.971-.293-1.514 0-.542.098-1.047.293-1.513.196-.467.478-.874.847-1.221l.152-.153c.312-.295.668-.526 1.068-.693.467-.196.971-.293 1.514-.293s1.047.097 1.514.293c.466.195.873.477 1.22.846l.153.152c.295.313.526.669.694 1.069.195.466.293.97.293 1.513 0 .543-.098 1.047-.293 1.514-.196.467-.478.873-.847 1.22l-.152.154c-.312.294-.668.526-1.068.693-.467.195-.971.293-1.514.293zm0-1.562c.326 0 .63-.06.911-.18.283-.119.521-.287.717-.504.217-.195.385-.434.504-.716.12-.282.18-.586.18-.912 0-.325-.06-.629-.18-.911-.12-.282-.287-.521-.504-.716-.196-.217-.434-.385-.717-.505-.282-.12-.585-.179-.911-.179-.326 0-.63.06-.911.18-.283.119-.521.287-.717.504-.217.195-.385.434-.504.716-.12.282-.18.586-.18.911 0 .326.06.63.18.912.12.282.287.52.504.716.196.217.434.385.717.504.282.12.585.18.911.18zm0-.554c-.239 0-.467-.043-.684-.13-.217-.087-.401-.217-.553-.39-.174-.153-.304-.337-.39-.554-.087-.217-.13-.445-.13-.684 0-.238.043-.466.13-.683.086-.217.216-.402.39-.554.152-.173.336-.303.553-.39.217-.087.445-.13.684-.13.239 0 .467.043.684.13.217.087.401.217.553.39.174.152.304.337.39.554.087.217.13.445.13.683 0 .239-.043.467-.13.684-.086.217-.216.401-.39.553-.152.174-.336.304-.553.39-.217.088-.445.131-.684.131z" transform="translate(-676 -524) translate(664 516) translate(12 7) translate(0 1)"/>
                    </g>
                </g>
            </g>
        </g>
    </g>
</svg>
