<svg xmlns="http://www.w3.org/2000/svg" width="20" height="20" viewBox="0 0 20 20">
    <g fill="none" fill-rule="evenodd">
        <g fill="#63767D" fill-rule="nonzero">
            <g>
                <g>
                    <g>
                        <path d="M2.383 17.923c.087 0 .157-.027.211-.081.055-.054.082-.114.082-.18 0-.477.092-.884.276-1.22.185-.336.43-.613.733-.83.282-.239.618-.407 1.009-.505.39-.097.781-.146 1.172-.146h1.042c.043 0 .086-.01.13-.033.043-.021.076-.054.097-.097l1.033-1.614.058.035c.39.218.8.341 1.23.368l.186.006c.5 0 .971-.124 1.416-.374.445-.25.83-.58 1.156-.993.325-.39.585-.835.78-1.335.196-.499.315-.998.359-1.497.087-.022.173-.065.26-.13.087-.065.152-.141.196-.228.065-.065.114-.152.146-.26.033-.109.049-.217.049-.326V7.116c0-.152-.016-.288-.049-.407-.032-.12-.092-.212-.179-.277-.065-.087-.174-.157-.325-.211-.152-.055-.337-.082-.554-.082V5.033c0-.478-.06-.896-.179-1.254-.12-.358-.287-.656-.504-.895-.24-.239-.521-.423-.847-.553-.325-.13-.694-.196-1.107-.196-.564 0-1.08.076-1.546.228l-.895.293c-.304 0-.586.065-.846.196-.26.13-.489.293-.684.488-.195.217-.347.466-.456.749-.108.282-.162.596-.162.944V6.27c-.109.065-.228.168-.359.309-.13.14-.195.32-.195.537v1.367c0 .109.016.212.049.31.033.097.092.19.18.276.064.087.14.163.227.228s.184.108.293.13c.043.5.168.998.374 1.497.206.5.483.944.83 1.335.186.236.392.445.617.627l.013.01-.011.014-.944 1.498h-.88c-.563 0-1.073.076-1.53.227-.455.152-.845.37-1.17.651-.348.283-.609.624-.782 1.026-.174.401-.26.852-.26 1.35 0 .066.027.126.08.18.055.054.115.081.18.081zm7.259-4.85c-.434 0-.846-.12-1.237-.358-.39-.239-.738-.543-1.042-.912-.282-.39-.51-.813-.683-1.27-.174-.455-.26-.9-.26-1.334 0-.087-.028-.157-.082-.211-.054-.055-.114-.082-.18-.082-.13 0-.243-.043-.34-.13-.099-.087-.147-.184-.147-.293V7.116c0-.087.043-.174.13-.26.087-.087.173-.152.26-.196.044-.022.082-.054.114-.098.033-.043.049-.097.049-.162V5.033c0-.283.038-.532.114-.75.076-.216.19-.4.342-.553.152-.173.33-.303.537-.39.206-.087.428-.13.667-.13h.065c.022 0 .033-.011.033-.033.021 0 .266-.081.732-.244.467-.163.982-.244 1.546-.244.348 0 .651.049.912.146.26.098.477.244.65.44.175.195.305.44.392.732.086.293.13.635.13 1.026V6.4c0 .087.027.157.081.211.054.055.114.082.18.082.411 0 .656.032.732.097.076.065.114.174.114.326v1.367c0 .109-.033.206-.098.293s-.163.13-.293.13c-.065 0-.125.027-.18.082-.053.054-.08.124-.08.211 0 .434-.082.88-.245 1.335-.162.456-.385.879-.667 1.27-.282.368-.618.672-1.01.91-.39.24-.802.359-1.236.359zm4.362 1.335V12.65c0-.152.027-.293.081-.423.055-.13.136-.25.244-.359.087-.108.201-.19.342-.244.141-.054.288-.081.44-.081.152 0 .293.027.423.081.13.055.25.136.358.244.108.109.19.228.244.359.054.13.081.27.081.423v1.758h-2.213zm2.897 3.32h-3.613c-.109 0-.201-.044-.277-.13-.076-.087-.114-.185-.114-.293v-1.953c0-.109.038-.201.114-.277.076-.076.168-.114.277-.114H16.9c.13 0 .233.038.31.114.075.076.113.168.113.277v1.953c0 .108-.038.206-.114.293-.076.086-.179.13-.309.13zm-.13-5.078c0-.217-.044-.429-.13-.635-.087-.206-.207-.385-.358-.537-.152-.152-.331-.271-.538-.358-.206-.087-.417-.13-.634-.13-.239 0-.456.043-.651.13-.196.087-.37.206-.521.358-.152.152-.271.33-.358.537-.087.206-.13.418-.13.635v1.758h-.163c-.13 0-.255.021-.375.065-.119.043-.222.108-.309.195-.087.087-.152.19-.195.31-.044.119-.065.243-.065.374v1.953c0 .13.021.255.065.374.043.12.108.222.195.31.087.086.19.157.31.21.119.055.244.082.374.082H16.9c.152 0 .282-.027.39-.081.11-.054.207-.125.294-.212.108-.087.184-.19.227-.309.044-.12.066-.244.066-.374v-1.953c0-.13-.022-.255-.066-.375-.043-.12-.119-.222-.227-.309-.087-.087-.185-.152-.293-.195-.109-.044-.239-.065-.391-.065h-.13V12.65z" transform="translate(-676 -480) translate(664 472) translate(12 7) translate(0 1)"/>
                    </g>
                </g>
            </g>
        </g>
    </g>
</svg>
