<svg xmlns="http://www.w3.org/2000/svg" width="20" height="20" viewBox="0 0 20 20">
    <g fill="none" fill-rule="evenodd">
        <g fill="#63767D" fill-rule="nonzero">
            <g>
                <g>
                    <g>
                        <g>
                            <path d="M14.714 16.875c.195 0 .363-.043.504-.13.141-.087.255-.196.342-.326.087-.152.152-.314.195-.488.044-.174.065-.347.065-.52V2.226c0-.304-.043-.58-.13-.83-.087-.25-.206-.462-.358-.635-.174-.174-.369-.31-.586-.407-.217-.098-.456-.147-.716-.147H1.107c-.065 0-.125.027-.18.082C.874.344.848.414.848.5v16.081c0 .087.026.157.08.212.055.054.115.081.18.081h13.607zM3.06.762h-.553c0-.065.027-.125.08-.18.055-.054.115-.08.18-.08.087 0 .157.026.212.08.054.055.08.115.08.18zm-.554 15.56H1.4V.762h1.107l-.001 15.56zm6.641-8.627c.282 0 .548-.049.798-.146.25-.098.46-.244.634-.44.196-.173.342-.385.44-.634.098-.25.146-.505.146-.765 0-.282-.048-.548-.146-.798-.098-.25-.244-.461-.44-.635-.173-.195-.385-.341-.634-.44-.25-.097-.516-.146-.798-.146-.26 0-.515.05-.765.147-.25.098-.461.244-.635.44-.195.173-.341.385-.44.634-.097.25-.146.516-.146.798 0 .26.05.515.147.765.098.25.244.46.44.634.173.196.385.342.634.44.25.097.505.146.765.146zm0-.553c-.195 0-.38-.038-.553-.114-.174-.076-.326-.179-.456-.31-.13-.13-.233-.281-.31-.455-.075-.174-.113-.358-.113-.553 0-.217.038-.413.114-.586.076-.174.179-.326.309-.456s.282-.233.456-.31c.173-.075.358-.113.553-.113.217 0 .412.038.586.114.174.076.326.179.456.309s.233.282.309.456c.076.173.114.369.114.586 0 .195-.038.38-.114.553-.076.174-.179.326-.31.456-.13.13-.281.233-.455.309-.174.076-.369.114-.586.114zm3.841 6.413l.062-.005c.06-.01.11-.036.15-.077.054-.054.081-.124.081-.211 0-.022-.005-.038-.016-.05l-.016-.015c0-.673-.098-1.28-.293-1.823-.196-.543-.478-.999-.847-1.367-.347-.37-.77-.657-1.27-.863-.498-.206-1.063-.31-1.692-.31-.608 0-1.166.104-1.676.31-.51.206-.939.504-1.286.895-.369.39-.646.857-.83 1.4-.185.542-.277 1.15-.277 1.823 0 .087.027.157.082.211.054.055.113.082.179.082h7.65zM12.695 13H5.632c.021-.672.14-1.237.358-1.692.217-.456.488-.836.813-1.14.348-.282.722-.483 1.123-.602.402-.12.809-.179 1.221-.179.412 0 .825.06 1.237.18.412.118.781.32 1.107.601.347.304.63.684.846 1.14.217.455.337 1.02.358 1.692zM3.06.761h10.97c.217 0 .401.044.553.13.152.088.282.196.391.326.108.13.184.288.228.472.043.185.065.364.065.538V15.41c0 .152-.038.342-.114.57-.076.228-.222.342-.44.342H3.06V.762zm-.553 15.56h.553c0 .066-.027.125-.081.18-.055.054-.125.081-.212.081-.065 0-.125-.027-.18-.081-.053-.055-.08-.114-.08-.18z" transform="translate(-676 -568) translate(664 560) translate(12 7) translate(0 1) translate(1.667 1.667)"/>
                        </g>
                    </g>
                </g>
            </g>
        </g>
    </g>
</svg>
