<svg xmlns="http://www.w3.org/2000/svg" width="20" height="20" viewBox="0 0 20 20">
    <g fill="none" fill-rule="evenodd" opacity=".6">
        <g fill="#989898" fill-rule="nonzero">
            <g>
                <g>
                    <g>
                        <g>
                            <path d="M9 5c0 1.66-1.34 3-3 3S3 6.66 3 5s1.34-3 3-3 3 1.34 3 3m3 11H0v-2c0-2.21 2.69-4 6-4s6 1.79 6 4m8-6v2h-9V8m9-4v2h-9V4m9-4v2h-9V0h9z" transform="translate(-217 -269) translate(201 259) translate(16 9) translate(0 1) translate(0 2)"/>
                        </g>
                    </g>
                </g>
            </g>
        </g>
    </g>
</svg>
