<svg xmlns="http://www.w3.org/2000/svg" width="16" height="16" viewBox="0 0 16 16">
    <defs>
        <filter id="y13reubexa">
            <feColorMatrix in="SourceGraphic" values="0 0 0 0 0.777740 0 0 0 0 0.152377 0 0 0 0 0.152377 0 0 0 1.000000 0"/>
        </filter>
    </defs>
    <g fill="none" fill-rule="evenodd">
        <g>
            <g filter="url(#y13reubexa)" transform="translate(-263 -528) translate(263 528)">
                <g>
                    <path fill="#000" fill-rule="nonzero" d="M6.3 9.1h1.4v1.4H6.3V9.1m0-5.6h1.4v4.2H6.3V3.5M7 0C3.129 0 0 3.15 0 7c0 1.857.737 3.637 2.05 4.95C3.363 13.263 5.143 14 7 14c3.866 0 7-3.134 7-7 0-1.857-.737-3.637-2.05-4.95C10.637.737 8.857 0 7 0m0 12.6c-3.093 0-5.6-2.507-5.6-5.6 0-3.093 2.507-5.6 5.6-5.6 1.485 0 2.91.59 3.96 1.64C12.01 4.09 12.6 5.515 12.6 7c0 3.093-2.507 5.6-5.6 5.6z" transform="translate(1 1)"/>
                </g>
            </g>
        </g>
    </g>
</svg>
