<svg xmlns="http://www.w3.org/2000/svg" width="16" height="16" viewBox="0 0 16 16">
    <g fill="none" fill-rule="evenodd">
        <g fill="#FFF" fill-rule="nonzero">
            <g>
                <path d="M13.444 1.6h-3.25C9.866.672 9.01 0 8 0S6.133.672 5.807 1.6H2.556C1.7 1.6 1 2.32 1 3.2v11.2c0 .88.7 1.6 1.556 1.6h10.888C14.3 16 15 15.28 15 14.4V3.2c0-.88-.7-1.6-1.556-1.6zM8 1c.275 0 .5.225.5.5S8.275 2 8 2s-.5-.225-.5-.5.225-.5.5-.5zm2 11H4v-1h6v1zm2-3H4V8h8v1zm0-3H4V5h8v1z" transform="translate(-100 -681) translate(100 681)"/>
            </g>
        </g>
    </g>
</svg>
