<svg xmlns="http://www.w3.org/2000/svg" width="20" height="20" viewBox="0 0 20 20">
    <g fill="none" fill-rule="evenodd" opacity=".6">
        <g fill="#989898" fill-rule="nonzero">
            <g>
                <g>
                    <g>
                        <g>
                            <path d="M16 2h-4.18C11.4.84 10.3 0 9 0 7.7 0 6.6.84 6.18 2H2C.9 2 0 2.9 0 4v14c0 1.1.9 2 2 2h14c1.1 0 2-.9 2-2V4c0-1.1-.9-2-2-2M4 7h2v4H5V8H4V7m3 9v1H4v-.92L6 14H4v-1h2.25c.41 0 .75.34.75.75 0 .2-.08.39-.21.52L5.12 16H7M8 3c0-.55.45-1 1-1s1 .45 1 1-.45 1-1 1-1-.45-1-1m6 13H9v-2h5v2m0-6H9V8h5v2z" transform="translate(-384 -390) translate(368 380) translate(16 9) translate(0 1) translate(1)"/>
                        </g>
                    </g>
                </g>
            </g>
        </g>
    </g>
</svg>
