<svg xmlns="http://www.w3.org/2000/svg" width="20" height="20" viewBox="0 0 20 20">
    <g fill="none" fill-rule="evenodd" opacity=".6">
        <g fill="#989898" fill-rule="nonzero">
            <g>
                <g>
                    <g>
                        <g>
                            <path d="M14.85 0C16.56 0 18 1.44 18 3.15v9.45L12.6 18H3.15C1.44 18 0 16.56 0 14.85V3.15C0 1.44 1.44 0 3.15 0zm1.35 11.7h-1.35c-1.71 0-3.15 1.44-3.15 3.15v1.35l4.5-4.5zM6.864 2.85H5.278v1.086c-1.029.206-1.853.836-1.853 1.807 0 1.15 1.015 1.73 2.493 2.063 1.328.296 1.593.74 1.593 1.203 0 .34-.265.893-1.43.893-1.09 0-1.518-.463-1.58-1.054H3.33c.068 1.093.926 1.71 1.948 1.91v1.092H6.87v-1.074c1.035-.186 1.852-.745 1.859-1.78-.007-1.415-1.294-1.903-2.492-2.199-1.206-.29-1.594-.604-1.594-1.073 0-.54.538-.92 1.43-.92.94 0 1.294.425 1.321 1.055H8.56c-.034-.862-.593-1.653-1.696-1.91V2.85z" transform="translate(-384 -230) translate(368 220) translate(16 9) translate(0 1) translate(1 1)"/>
                        </g>
                    </g>
                </g>
            </g>
        </g>
    </g>
</svg>
