<svg xmlns="http://www.w3.org/2000/svg" width="20" height="20" viewBox="0 0 20 20">
    <g fill="none" fill-rule="evenodd" opacity=".6">
        <g fill="#989898">
            <g>
                <g>
                    <g>
                        <path fill-rule="nonzero" d="M15 0c1.105 0 2 .814 2 1.818V10c-.547-.194-1.136-.299-1.75-.299-.084 0-.167.002-.25.006v-6.07H5v12.728h5.192c.49 1.755 1.87 3.14 3.622 3.637L5 20c-1.11 0-2-.818-2-1.818V1.818C3 .81 3.89 0 5 0h10zm-5 8.455v2H7v-2h3zm3-3v1.818H7V5.455h6z" transform="translate(-69 -150) translate(53 140) translate(16 9) translate(0 1)"/>
                        <path d="M16.167 10.667c.091 0 .183.075.191.175l.159 1.1c.258.1.483.241.708.391l1.025-.416c.108 0 .217 0 .267.108l.833 1.442c.05.091.025.2-.05.266l-.883.684c.025.141.033.275.033.416 0 .142-.017.275-.033.417l.891.683c.075.067.1.175.05.267l-.833 1.442c-.058.108-.167.108-.275.108l-1.025-.417c-.225.15-.45.284-.7.392l-.158 1.1c-.017.1-.109.175-.2.175H14.5c-.117 0-.2-.075-.217-.175l-.158-1.1c-.258-.1-.492-.242-.708-.392l-1.034.417c-.1 0-.208 0-.258-.108l-.833-1.442c-.05-.092-.025-.2.05-.267l.883-.683c-.017-.142-.025-.275-.025-.417 0-.141.008-.275.025-.416l-.883-.684c-.084-.066-.1-.175-.05-.266l.833-1.442c.058-.108.167-.108.258-.108l1.034.416c.216-.15.458-.283.708-.391l.158-1.1c.017-.1.109-.175.217-.175zm-.834 2.916c-.691 0-1.25.559-1.25 1.25 0 .692.55 1.25 1.25 1.25.692 0 1.25-.558 1.25-1.25 0-.691-.558-1.25-1.25-1.25z" transform="translate(-69 -150) translate(53 140) translate(16 9) translate(0 1)"/>
                    </g>
                </g>
            </g>
        </g>
    </g>
</svg>
