<svg xmlns="http://www.w3.org/2000/svg" width="20" height="20" viewBox="0 0 20 20">
    <g fill="none" fill-rule="evenodd" opacity=".6">
        <g fill="#989898" fill-rule="nonzero">
            <g>
                <g>
                    <g>
                        <path d="M14 16l-4 4-4-4h8zm4-16c1.105 0 2 .895 2 2v10c0 1.105-.895 2-2 2H2c-1.105 0-2-.895-2-2V2C0 .895.895 0 2 0h16zM9.09 8.889H3.637v1.778h5.455V8.889zm7.274-1.778h-5.455v3.556h5.455V7.11zM9.09 3.556H3.636V7.11h5.455V3.556zm7.273 0h-5.455v1.777h5.455V3.556z" transform="translate(-384 -270) translate(368 260) translate(16 9) translate(0 1)"/>
                    </g>
                </g>
            </g>
        </g>
    </g>
</svg>
