<svg xmlns="http://www.w3.org/2000/svg" width="20" height="20" viewBox="0 0 20 20">
    <g fill="none" fill-rule="evenodd" opacity=".6">
        <g fill="#989898">
            <g>
                <g>
                    <g>
                        <g>
                            <path d="M7 0c1.16 0 2.273.439 3.094 1.22.82.782 1.281 1.842 1.281 2.947v1.666h.875c.966 0 1.75.747 1.75 1.667v8.333c0 .92-.784 1.667-1.75 1.667H1.75C.779 17.5 0 16.75 0 15.833V7.5c0-.925.779-1.667 1.75-1.667h.875V4.167C2.625 1.865 4.584 0 7 0zm0 10c-.971 0-1.75.742-1.75 1.667 0 .916.779 1.666 1.75 1.666.966 0 1.75-.746 1.75-1.666C8.75 10.747 7.966 10 7 10zm0-8.333c-1.45 0-2.625 1.119-2.625 2.5v1.666h5.25V4.167c0-1.381-1.175-2.5-2.625-2.5z" transform="translate(-69 -270) translate(53 260) translate(16 9) translate(0 1) translate(3 1)"/>
                        </g>
                    </g>
                </g>
            </g>
        </g>
    </g>
</svg>
