<svg xmlns="http://www.w3.org/2000/svg" width="20" height="20" viewBox="0 0 20 20">
    <g fill="none" fill-rule="evenodd" opacity=".6">
        <g fill="#989898">
            <g>
                <g>
                    <g>
                        <g>
                            <path d="M16.667 13.333v3.334h-3.334v-2.5h-2.5v-2.5h-2.5L6.45 9.783C5.992 9.925 5.508 10 5 10c-2.761 0-5-2.239-5-5s2.239-5 5-5 5 2.239 5 5c0 .508-.075.992-.217 1.45l6.884 6.883M4.167 2.5c-.92 0-1.667.746-1.667 1.667 0 .92.746 1.666 1.667 1.666.92 0 1.666-.746 1.666-1.666 0-.92-.746-1.667-1.666-1.667z" transform="translate(-217 -190) translate(201 180) translate(16 9) translate(0 1) translate(2 2)"/>
                        </g>
                    </g>
                </g>
            </g>
        </g>
    </g>
</svg>
