<svg xmlns="http://www.w3.org/2000/svg" width="20" height="20" viewBox="0 0 20 20">
    <g fill="none" fill-rule="evenodd" opacity=".6">
        <g>
            <g>
                <g>
                    <g>
                        <path d="M0 0L20 0 20 20 0 20z" transform="translate(-384 -110) translate(368 100) translate(16 9) translate(0 1)"/>
                        <path fill="#989898" d="M10 1.667c4.6 0 8.333 3.733 8.333 8.333S14.6 18.333 10 18.333 1.667 14.6 1.667 10 5.4 1.667 10 1.667zm1.025 2.5H9.083v1.408c-1.258.267-2.266 1.083-2.266 2.342 0 1.491 1.241 2.241 3.05 2.675 1.625.383 1.95.958 1.95 1.558 0 .442-.325 1.158-1.75 1.158-1.334 0-1.859-.6-1.934-1.366H6.7c.083 1.416 1.133 2.216 2.383 2.475v1.416h1.95v-1.391c1.267-.242 2.267-.967 2.275-2.309-.008-1.833-1.583-2.466-3.05-2.85-1.475-.375-1.95-.783-1.95-1.391 0-.7.659-1.192 1.75-1.192 1.15 0 1.584.55 1.617 1.367H13.1c-.042-1.117-.725-2.142-2.075-2.475V4.167z" transform="translate(-384 -110) translate(368 100) translate(16 9) translate(0 1)"/>
                    </g>
                </g>
            </g>
        </g>
    </g>
</svg>
