<svg xmlns="http://www.w3.org/2000/svg" width="20" height="20" viewBox="0 0 20 20">
    <g fill="none" fill-rule="evenodd" opacity=".6">
        <g fill="#989898">
            <g>
                <g>
                    <g>
                        <g>
                            <path d="M2 0h14c1.105 0 2 .895 2 2v14c0 1.105-.895 2-2 2H2c-1.105 0-2-.895-2-2V2C0 .895.895 0 2 0m10 2v14h4V2h-4M2 2v4h8V2H2m0 6v2h2V8H2m3 0v2h2V8H5m3 0v2h2V8H8m-6 3v2h2v-2H2m3 0v2h2v-2H5m3 0v2h2v-2H8m0 3v2h2v-2H8m-3 0v2h2v-2H5m-3 0v2h2v-2H2z" transform="translate(-69 -230) translate(53 220) translate(16 9) translate(0 1) translate(1 1)"/>
                        </g>
                    </g>
                </g>
            </g>
        </g>
    </g>
</svg>
