<svg xmlns="http://www.w3.org/2000/svg" width="20" height="20" viewBox="0 0 20 20">
    <g fill="none" fill-rule="evenodd" opacity=".6">
        <g fill="#989898" fill-rule="nonzero">
            <g>
                <g>
                    <g>
                        <g>
                            <path d="M13.92 2.39v15c0 1.67 1.14 2.61 2.39 2.61 1.14 0 2.39-.79 2.39-2.61V2.5C18.7.96 17.56 0 16.31 0c-1.25 0-2.39 1.06-2.39 2.39M7.14 10v7.39C7.14 19.07 8.3 20 9.53 20c1.14 0 2.39-.79 2.39-2.61v-7.28c0-1.54-1.14-2.5-2.39-2.5-1.25 0-2.39 1.06-2.39 2.39m-4.39 5.23c1.32 0 2.39 1.07 2.39 2.38 0 1.32-1.07 2.39-2.39 2.39S.36 18.93.36 17.61c0-1.31 1.07-2.38 2.39-2.38z" transform="translate(-217 -230) translate(201 220) translate(16 9) translate(0 1) translate(1)"/>
                        </g>
                    </g>
                </g>
            </g>
        </g>
    </g>
</svg>
