<svg xmlns="http://www.w3.org/2000/svg" width="20" height="20" viewBox="0 0 20 20">
    <g fill="none" fill-rule="evenodd" opacity=".6">
        <g fill="#989898" fill-rule="nonzero">
            <g>
                <g>
                    <g>
                        <g>
                            <path d="M1.818 0h12.727c1.01 0 1.819.818 1.819 1.818v6.437c-1.41-.237-2.8.09-3.928.836H9.091v3.636h.982c-.1.618-.1 1.228 0 1.818H1.818c-1 0-1.818-.809-1.818-1.818V1.818C0 .818.818 0 1.818 0m0 3.636v3.637h5.455V3.636H1.818m7.273 0v3.637h5.454V3.636H9.091M1.818 9.091v3.636h5.455V9.091H1.818M19.8 14.836l-.973-.745c.018-.155.037-.3.037-.455 0-.154-.01-.3-.037-.454l.964-.746c.082-.072.109-.19.054-.29l-.909-1.573c-.054-.118-.172-.118-.3-.118l-1.109.454c-.254-.164-.49-.318-.772-.427l-.173-1.2c-.01-.11-.11-.191-.218-.191h-1.819c-.109 0-.209.082-.227.19l-.173 1.2c-.272.119-.536.264-.772.428l-1.128-.454c-.1 0-.218 0-.281.118l-.91 1.572c-.054.1-.036.219.055.291l.964.746c-.018.154-.028.3-.028.454 0 .155.01.3.028.455l-.964.745c-.082.073-.109.191-.054.291l.909 1.573c.054.118.172.118.281.118l1.128-.454c.236.163.49.318.772.427l.173 1.2c.018.109.11.19.227.19h1.819c.109 0 .209-.081.227-.19l.173-1.2c.272-.118.509-.264.763-.427l1.11.454c.127 0 .245 0 .308-.118l.91-1.573c.054-.1.027-.218-.055-.29M15.455 15c-.755 0-1.364-.61-1.364-1.364 0-.754.618-1.363 1.364-1.363.745 0 1.363.609 1.363 1.363 0 .755-.6 1.364-1.363 1.364z" transform="translate(-217 -110) translate(201 100) translate(16 9) translate(0 1) translate(0 2)"/>
                        </g>
                    </g>
                </g>
            </g>
        </g>
    </g>
</svg>
