<svg xmlns="http://www.w3.org/2000/svg" width="20" height="20" viewBox="0 0 20 20">
    <g fill="none" fill-rule="evenodd" opacity=".6">
        <g fill="#989898" fill-rule="nonzero">
            <g>
                <g>
                    <g>
                        <g>
                            <path d="M14 18v.182C14 19.186 13.105 20 12 20H2c-1.11 0-2-.818-2-1.818V18h14zM12 0c1.105 0 2 .814 2 1.818V17H0V1.818C0 .81.89 0 2 0h10zM7.772 6H6.303v1.086c-.952.206-1.715.836-1.715 1.807 0 1.15.94 1.73 2.308 2.063 1.23.296 1.475.74 1.475 1.203 0 .34-.246.893-1.324.893-1.009 0-1.406-.463-1.463-1.054H4.5c.063 1.093.858 1.71 1.803 1.91V15H7.78v-1.074c.958-.186 1.715-.745 1.721-1.78-.006-1.415-1.198-1.903-2.308-2.199-1.116-.29-1.475-.604-1.475-1.073 0-.54.498-.92 1.324-.92.87 0 1.198.425 1.223 1.055h1.078c-.031-.862-.548-1.653-1.57-1.91V6zM8.5 2h-3c-.276 0-.5.224-.5.5s.224.5.5.5h3c.276 0 .5-.224.5-.5S8.776 2 8.5 2z" transform="translate(-384 -350) translate(368 340) translate(16 9) translate(0 1) translate(3)"/>
                        </g>
                    </g>
                </g>
            </g>
        </g>
    </g>
</svg>
