<svg xmlns="http://www.w3.org/2000/svg" width="20" height="20" viewBox="0 0 20 20">
    <g fill="none" fill-rule="evenodd" opacity=".6">
        <g fill="#989898" fill-rule="nonzero">
            <g>
                <g>
                    <g>
                        <g>
                            <path d="M15.25 0c.396 0 .747.124 1.071.373.334.25.54.57.658.96l.927 3.92c.226.97.045 1.814-.549 2.543l-.252.248v6.178c0 .445-.198.871-.55 1.236-.35.364-.8.542-1.251.542H2.696c-.45 0-.882-.196-1.252-.542-.369-.347-.549-.791-.549-1.236V8.044l-.252-.248c-.594-.73-.775-1.574-.55-2.543l.928-3.92c.09-.39.288-.71.63-.96C1.995.124 2.364 0 2.752 0zM9 10c-1.105 0-2 .895-2 2v2h4v-2c0-1.105-.895-2-2-2zm6.205-8.249l-1.73.027.55 4.302c.027.284.135.524.333.729.198.213.442.302.72.302.343 0 .622-.124.847-.4.252-.311.333-.658.252-1.04l-.972-3.92zm-10.68.027H2.75L1.823 5.67c-.081.382 0 .729.252 1.04.198.276.477.4.846.4.595 0 .946-.329 1.054-1.031l.55-4.302zm3.574 0H6.343l-.495 4v.142c0 .302.1.569.306.827.207.257.469.364.775.364.342 0 .621-.107.846-.338.225-.24.324-.506.324-.817V1.778zm3.558 0H9.9v4.178c0 .31.099.577.324.817.225.231.477.338.756.338.37 0 .676-.115.91-.382.26-.267.333-.578.26-.951l-.494-4z" transform="translate(-532 -150) translate(516 140) translate(16 9) translate(0 1) translate(1 2)"/>
                        </g>
                    </g>
                </g>
            </g>
        </g>
    </g>
</svg>
