<svg xmlns="http://www.w3.org/2000/svg" width="20" height="20" viewBox="0 0 20 20">
    <g fill="none" fill-rule="evenodd" opacity=".6">
        <g fill="#989898" fill-rule="nonzero">
            <g>
                <g>
                    <g>
                        <g>
                            <path d="M16.72 11.736c.35-.843.54-1.745.54-2.736 0-.714-.11-1.398-.3-2.032-.65.149-1.33.228-2.04.228-3.06 0-5.77-1.497-7.42-3.806-.89 2.14-2.59 3.885-4.73 4.837-.04.248-.04.515-.04.773 0 3.98 3.255 7.206 7.27 7.206 1.05 0 2.06-.228 2.97-.634.57 1.08.83 1.615.81 1.615-1.64.545-2.91.813-3.78.813-2.42 0-4.73-.942-6.43-2.637-1.04-1.03-1.81-2.29-2.24-3.657H0v-4.51h1.09C1.93 3.093 5.6 0 10 0c2.4 0 4.71.942 6.42 2.637 1.27 1.248 2.12 2.844 2.47 4.559H20v4.51h-.06l-3.56 3.241-5.3-.595v-1.655h4.83l.81-.961M7.004 9c.265 0 .52.106.705.3.185.185.291.44.291.704 0 .265-.106.52-.29.705-.186.185-.441.291-.706.291C6.45 11 6 10.56 6 10.004 6 9.45 6.45 9 7.004 9m6 0c.555 0 .996.45.996 1.004 0 .555-.44.996-.996.996-.555 0-1.004-.44-1.004-.996C12 9.45 12.45 9 13.004 9z" transform="translate(-69 -110) translate(53 100) translate(16 9) translate(0 1) translate(0 1)"/>
                        </g>
                    </g>
                </g>
            </g>
        </g>
    </g>
</svg>
