<?xml version="1.0" encoding="UTF-8"?>
<svg width="16px" height="16px" viewBox="0 0 16 16" version="1.1" xmlns="http://www.w3.org/2000/svg" xmlns:xlink="http://www.w3.org/1999/xlink">
    <title>ic_1st</title>
    <g id="專案管理" stroke="none" stroke-width="1" fill="none" fill-rule="evenodd">
        <g id="assets_pmp" transform="translate(-236.000000, -53.000000)" fill-rule="nonzero">
            <g id="ic_1st" transform="translate(236.000000, 53.000000)">
                <rect id="Rectangle" fill="#000000" opacity="0" x="0" y="0" width="16" height="16"></rect>
                <g id="126327" transform="translate(2.000000, 1.000000)" fill="#A2A6B8">
                    <path d="M8.00176491,7.95619326 C8.00176491,7.95619326 8.01086105,7.96259343 8.02844532,7.97452848 L8.10605456,8.02607293 C8.42860381,8.23639807 9.46233579,8.86815209 10.6859688,9.17944815 C11.7903766,9.46062285 11.8425534,10.7360545 11.8019714,11.3650742 C11.8019714,11.3650742 11.7381999,12.2201931 11.6744283,12.5970252 C11.6744283,12.5970252 9.51778933,14 5.90599883,14 C2.29420833,13.9971013 0.13756938,12.5970252 0.13756938,12.5970252 C0.0737977984,12.2201931 0.0100262165,11.3650742 0.0100262165,11.3650742 C-0.0334544075,10.7360545 0.0187223413,9.46062285 1.12313019,9.17944815 C2.60437012,8.80261608 3.80733405,7.95619326 3.80733405,7.95619326 L3.80733405,7.95619326 L4.74941423,10.9273692 L4.926,11.485 L4.92913415,11.4781238 L5.08276569,11.953512 L5.5784448,10.5476385 C4.47880579,9.01338022 5.56662072,8.87909251 5.84727087,8.869606 L5.96472679,8.869606 C6.24537694,8.87909251 7.33319187,9.01338022 6.23355287,10.5476385 L6.23355287,10.5476385 L6.72923198,11.953512 L6.88286352,11.4781238 L6.885,11.485 L7.06258343,10.9273692 Z M5.71468409,0.0108338998 C6.36689345,-0.0442415573 6.86257256,0.118086106 7.21911368,0.329691809 C7.74957729,0.622461344 7.95248687,1.01088825 7.95248687,1.01088825 C7.95248687,1.01088825 9.16994434,1.09495079 8.75832777,3.56754894 C8.7351381,3.69509211 8.7003536,3.82843269 8.65397427,3.95887456 C8.89746577,3.93568489 9.18443788,4.0777216 8.91485802,5.03139662 C8.71774585,5.72998531 8.53512723,5.92419877 8.39598924,5.9357936 C8.26554736,6.76192546 7.60464188,7.81415656 6.56980303,8.18808992 C6.13789549,8.34462017 5.66540605,8.34172146 5.23349852,8.19098863 C4.18126741,7.81995397 3.54065289,6.76482416 3.41310972,5.9357936 C3.27397173,5.92419877 3.09135311,5.72998531 2.89134223,5.03429533 C2.62176237,4.08062031 2.90873448,3.9385836 3.15222598,3.96177327 C3.10584665,3.8313314 3.07106215,3.70088952 3.04787248,3.57044765 L3.04787248,3.57044765 L3.01000139,3.34983717 C2.95672421,2.98635794 2.95511382,2.64334412 3.04207506,2.31240826 C3.16671952,1.78194465 3.45369164,1.35583454 3.77544826,1.02538179 C3.97835784,0.807978673 4.2102545,0.616663928 4.45374599,0.46303239 C4.65375686,0.323894393 4.87405869,0.205047354 5.11465148,0.123883522 L5.11465148,0.123883522 L5.30693246,0.0694522225 C5.43769641,0.0378885103 5.57361362,0.0166313163 5.71468409,0.0108338998 Z" id="Combined-Shape"></path>
                </g>
            </g>
        </g>
    </g>
</svg>