<?xml version="1.0" encoding="UTF-8"?>
<svg width="16px" height="16px" viewBox="0 0 16 16" version="1.1" xmlns="http://www.w3.org/2000/svg" xmlns:xlink="http://www.w3.org/1999/xlink">
    <title>ic_2nd</title>
    <g id="專案管理" stroke="none" stroke-width="1" fill="none" fill-rule="evenodd">
        <g id="assets_pmp" transform="translate(-236.000000, -225.000000)" fill-rule="nonzero">
            <g id="ic_2nd" transform="translate(236.000000, 225.000000)">
                <rect id="Rectangle" fill="#000000" opacity="0" x="0" y="0" width="16" height="16"></rect>
                <path d="M8.64,3.127 C8.68657926,3.16579944 8.72953389,3.20875407 8.76833333,3.25533333 L10.6666667,5.53333333 L12.7606667,3.987 C13.1000388,3.73632895 13.560227,3.72562463 13.9108873,3.96024503 C14.2615477,4.19486542 14.4272287,4.62432732 14.325,5.03366667 L12.3333333,13 L3.66666667,13 L1.675,5.034 C1.5725744,4.62460621 1.7381788,4.19497932 2.08888819,3.96025139 C2.43959758,3.72552345 2.89991218,3.73622607 3.23933333,3.987 L5.33333333,5.53333333 L7.23166667,3.25533333 C7.40141864,3.05146735 7.645221,2.92340724 7.90941367,2.89933857 C8.17360634,2.87526991 8.43653622,2.95716535 8.64033333,3.127 L8.64,3.127 Z M10.3333333,10.1556667 L5.66666667,10.1556667 L5.66666667,11.2223333 L10.3333333,11.2223333 L10.3333333,10.1556667 Z" id="Shape" fill="#A2A6B8"></path>
            </g>
        </g>
    </g>
</svg>