<?xml version="1.0" encoding="UTF-8"?>
<svg width="16px" height="16px" viewBox="0 0 16 16" version="1.1" xmlns="http://www.w3.org/2000/svg" xmlns:xlink="http://www.w3.org/1999/xlink">
    <title>ic_3rd</title>
    <g id="專案管理" stroke="none" stroke-width="1" fill="none" fill-rule="evenodd">
        <g id="assets_pmp" transform="translate(-236.000000, -199.000000)" fill-rule="nonzero">
            <g id="ic_3rd" transform="translate(236.000000, 199.000000)">
                <rect id="Rectangle" fill="#000000" opacity="0" x="0" y="0" width="16" height="16"></rect>
                <path d="M6,10 C6,11.1045695 6.8954305,12 8,12 C9.1045695,12 10,11.1045695 10,10 C10,8.8954305 9.1045695,8 8,8 C6.8954305,8 6,8.8954305 6,10 Z" id="Path" fill="#A2A6B8"></path>
                <path d="M11.65,5.9 L12.95,3.65 C13,3.6 13.05,3.5 13.05,3.4 L13.05,1 C13.05,0.85 13,0.75 12.9,0.65 C12.75,0.5 12.75,0.5 3.05,0.5 C2.9,0.5 2.75,0.55 2.7,0.65 C2.6,0.75 2.55,0.85 2.55,1 L2.55,3.4 C2.55,3.5 2.55,3.55 2.6,3.65 L4.05,6.25 C3.1,7.2 2.5,8.55 2.5,10 C2.5,13.05 4.95,15.5 8,15.5 C11.05,15.5 13.5,13.05 13.5,10 C13.5,8.35 12.8,6.9 11.65,5.9 Z M9.5,2.05 C9.5,1.75 9.7,1.55 10,1.55 C10.3,1.55 10.5,1.75 10.5,2.05 L10.5,5 C10.5,5.3 10.3,5.5 10,5.5 C9.7,5.5 9.5,5.3 9.5,5 L9.5,2.05 Z M5,2.05 C5,1.75 5.2,1.55 5.5,1.55 C5.8,1.55 6,1.75 6,2.05 L6,5.05 C6,5.35 5.8,5.55 5.5,5.55 C5.2,5.55 5,5.35 5,5.05 L5,2.05 Z M8,13 C6.35,13 5,11.65 5,10 C5,8.35 6.35,7 8,7 C9.65,7 11,8.35 11,10 C11,11.65 9.65,13 8,13 Z" id="Shape" fill="#A2A6B8"></path>
            </g>
        </g>
    </g>
</svg>