<?xml version="1.0" encoding="UTF-8"?>
<svg width="16px" height="16px" viewBox="0 0 16 16" version="1.1" xmlns="http://www.w3.org/2000/svg" xmlns:xlink="http://www.w3.org/1999/xlink">
    <title>ic_4th</title>
    <g id="專案管理" stroke="none" stroke-width="1" fill="none" fill-rule="evenodd">
        <g id="assets_pmp" transform="translate(-236.000000, -355.000000)" fill-rule="nonzero">
            <g id="ic_4th" transform="translate(236.000000, 355.000000)">
                <rect id="Rectangle" fill="#000000" opacity="0" x="0" y="0" width="16" height="16"></rect>
                <path d="M8.65791793,1.15744738 L12.5713446,3.41697141 C12.9349445,3.62689591 13.1589356,4.01484839 13.1589462,4.43469739 L13.1589462,8.95374549 C13.1590081,9.36799435 12.9409714,9.75167944 12.5850553,9.96363677 L14,12.4139355 L11.4216042,13.016423 L9.73871315,14.8967481 L8.27950249,12.3696695 C8.09930467,12.4021834 7.91362256,12.3923901 7.73734208,12.3402894 L6.26167858,14.8967481 L4.57839585,13.016423 L2,12.4135437 L3.4541181,9.89547499 C3.15675707,9.67361253 2.98162313,9.32436119 2.98168641,8.95335374 L2.98168641,4.43469739 C2.98169708,4.01484839 3.20568811,3.62689591 3.56928802,3.41697141 L7.48271471,1.15744738 C7.84632385,0.947517541 8.29430879,0.947517541 8.65791793,1.15744738 Z M4.467535,10.4897361 L3.8094212,11.6296832 L5.20673782,11.9559979 L6.05484281,12.9039952 L6.70316326,11.7805009 L4.467535,10.4897361 Z M11.5669376,10.5508467 L9.33170109,11.8416115 L9.94554892,12.9039952 L10.7936539,11.9559979 L12.1905788,11.6300749 L11.5677211,10.5508467 L11.5669376,10.5508467 Z M8.07031632,4.34381501 C6.7722227,4.34381501 5.71990989,5.39612781 5.71990989,6.69422144 C5.71990989,7.99231506 6.7722227,9.04462786 8.07031632,9.04462786 C9.36840994,9.04462786 10.4207227,7.99231506 10.4207227,6.69422144 C10.4207227,5.39612781 9.36840994,4.34381501 8.07031632,4.34381501 Z M8.07031632,5.51901822 C8.71936313,5.51901822 9.24551953,6.04517462 9.24551953,6.69422144 C9.24551953,7.34326825 8.71936313,7.86942465 8.07031632,7.86942465 C7.42126951,7.86942465 6.89511311,7.34326825 6.89511311,6.69422144 C6.89511311,6.04517462 7.42126951,5.51901822 8.07031632,5.51901822 Z" id="Shape" fill="#A2A6B8"></path>
            </g>
        </g>
    </g>
</svg>