<?xml version="1.0" encoding="UTF-8"?>
<svg width="16px" height="16px" viewBox="0 0 16 16" version="1.1" xmlns="http://www.w3.org/2000/svg" xmlns:xlink="http://www.w3.org/1999/xlink">
    <title>ic_5th</title>
    <g id="專案管理" stroke="none" stroke-width="1" fill="none" fill-rule="evenodd">
        <g id="assets_pmp" transform="translate(-236.000000, -278.000000)" fill-rule="nonzero">
            <g id="ic_5th" transform="translate(236.000000, 278.000000)">
                <rect id="Rectangle" fill="#000000" opacity="0" x="0" y="0" width="16" height="16"></rect>
                <path d="M14.5120006,1.363 C14.5115,1.2465 14.493,1.149 14.4675,1.061 C13.978,0.9315 13.3405,1.0805 12.8015,1.342 C12.691,1.3955 12.429,1.555 12.041,1.791 C11.8805,1.889 11.739,1.975 11.6765,2.0105 C11.6705,2.014 11.667,2.0205 11.6615,2.024 C10.6025,1.379 9.364,1 8.0355,1 C4.1755,1 1.0355,4.14 1.0355,8 C1.0355,9.294 1.3945,10.503 2.009,11.5435 C1.283,12.6625 0.923,13.4705 1.017,14.018 C1.0365,14.13 1.2295,14.148 1.3355,14.148 C3.4985,14.148 8.4425,9.4015 9.0575,8.7965 C11.7735,6.125 14.5135,2.859 14.5120006,1.363 Z M4.7855,9.542 C4.0965,9.542 3.5355,8.9815 3.5355,8.292 C3.5355,7.603 4.0965,7.042 4.7855,7.042 C5.4745,7.042 6.0355,7.603 6.0355,8.292 C6.0355,8.9815 5.4745,9.542 4.7855,9.542 Z M6.9855,6.042 C6.1585,6.042 5.4855,5.369 5.4855,4.542 C5.4855,3.715 6.1585,3.042 6.9855,3.042 C7.8125,3.042 8.4855,3.715 8.4855,4.542 C8.4855,5.369 7.8125,6.042 6.9855,6.042 Z M13.9985,4.3525 C12.95,5.9095 11.3015,7.779 9.657,9.396 C9.2095,9.8365 6.4965,12.4655 4.218,13.8665 C4.22,13.865 4.2215,13.864 4.2235,13.863 C5.3215,14.5795 6.6295,15 8.0355,15 C11.8955,15 15.0355,11.86 15.0355,8 C15.035,6.6625 14.652,5.4165 13.9985,4.3525 Z M10.0005,12.5 C9.449,12.5 9.0005,12.0515 9.0005,11.5 C9.0005,10.9485 9.449,10.5 10.0005,10.5 C10.552,10.5 11.0005,10.9485 11.0005,11.5 C11.0005,12.0515 10.552,12.5 10.0005,12.5 Z" id="Shape" fill="#A2A6B8"></path>
            </g>
        </g>
    </g>
</svg>