<?xml version="1.0" encoding="UTF-8"?>
<svg width="16px" height="16px" viewBox="0 0 16 16" version="1.1" xmlns="http://www.w3.org/2000/svg" xmlns:xlink="http://www.w3.org/1999/xlink">
    <title>ic_accounter</title>
    <g id="專案管理" stroke="none" stroke-width="1" fill="none" fill-rule="evenodd">
        <g id="assets_pmp" transform="translate(-236.000000, -645.000000)" fill-rule="nonzero">
            <g id="ic_accounter" transform="translate(236.000000, 645.000000)">
                <g id="transaction_fill">
                    <rect id="Rectangle" fill="#000000" opacity="0" x="0" y="0" width="16" height="16"></rect>
                    <path d="M3.40673521,2.35211544 L6.59326479,1.20890905 C7.36919467,0.930519721 8.62987371,0.930207625 9.40673521,1.20890905 L12.5932648,2.35211544 C13.3691947,2.63050476 14,3.53329347 14,4.36773322 L14,9.09847919 C14,12.8058635 8,15 8,15 C8,15 2,12.8058635 2,9.09847919 L2,4.36773322 C2,3.52476285 2.6297702,2.63081686 3.40673521,2.35211544 Z" id="Shape" fill="#A2A6B8"></path>
                </g>
                <path d="M8.25,11.8 L8.25,11 C8.71666667,10.9066667 9.07666667,10.6883333 9.33,10.345 C9.58333333,10.0016667 9.71,9.59 9.71,9.11 C9.71,8.76333333 9.615,8.46333333 9.425,8.21 C9.235,7.95666667 8.72333333,7.64 7.89,7.26 C7.46333333,7.06666667 7.25,6.82333333 7.25,6.53 C7.25,6.29666667 7.33,6.10666667 7.49,5.96 C7.65,5.81333333 7.85,5.74 8.09,5.74 C8.47,5.74 8.8,5.91333333 9.08,6.26 L9.08,6.26 L9.52,5.62 C9.19333333,5.21333333 8.77,4.98333333 8.25,4.93 L8.25,4.93 L8.25,4.17 L7.66,4.17 L7.66,4.92 C7.22666667,5 6.88666667,5.19333333 6.64,5.5 C6.39333333,5.80666667 6.27,6.18666667 6.27,6.64 C6.27,7.26 6.65333333,7.75 7.42,8.11 C7.82,8.29666667 8.10666667,8.43166667 8.28,8.515 C8.45333333,8.59833333 8.57,8.69666667 8.63,8.81 C8.69,8.92333333 8.72,9.05333333 8.72,9.2 C8.72,9.85333333 8.40666667,10.18 7.78,10.18 C7.30666667,10.18 6.90666667,9.86333333 6.58,9.23 L6.58,9.23 L5.93,9.85 C6.33,10.5633333 6.90666667,10.96 7.66,11.04 L7.66,11.04 L7.66,11.8 L8.25,11.8 Z" id="$" fill="#FFFFFF"></path>
            </g>
        </g>
    </g>
</svg>