<?xml version="1.0" encoding="UTF-8"?>
<svg width="24px" height="24px" viewBox="0 0 24 24" version="1.1" xmlns="http://www.w3.org/2000/svg" xmlns:xlink="http://www.w3.org/1999/xlink">
    <title>@ic/addchart</title>
    <g id="@ic/addchart" stroke="none" stroke-width="1" fill="none" fill-rule="evenodd">
        <g id="addchart-24px">
            <polygon id="Path" points="0 0 24 0 24 24 0 24"></polygon>
            <path d="M22,5 L22,7 L19,7 L19,10 L17,10 L17,7 L14,7 L14,5 L17,5 L17,2 L19,2 L19,5 L22,5 Z M19,19 L5,19 L5,5 L11,5 L11,3 L5,3 C3.9,3 3,3.9 3,5 L3,19 C3,20.1 3.9,21 5,21 L19,21 C20.1,21 21,20.1 21,19 L21,13 L19,13 L19,19 Z M15,13 L15,17 L17,17 L17,13 L15,13 Z M11,17 L13,17 L13,9 L11,9 L11,17 Z M9,17 L9,11 L7,11 L7,17 L9,17 Z" id="Shape" fill="#242666"></path>
        </g>
    </g>
</svg>