<?xml version="1.0" encoding="UTF-8"?>
<svg width="24px" height="24px" viewBox="0 0 24 24" version="1.1" xmlns="http://www.w3.org/2000/svg" xmlns:xlink="http://www.w3.org/1999/xlink">
    <title>@ic/assignment_turned_in</title>
    <g id="@ic/assignment_turned_in" stroke="none" stroke-width="1" fill="none" fill-rule="evenodd">
        <g id="assignment_turned_in-24px" transform="translate(1.000000, 3.000000)" fill-rule="nonzero">
            <path d="M17.7777778,2.21052632 L13.1333333,2.21052632 C12.6666667,0.928421053 11.4444444,0 10,0 C8.55555556,0 7.33333333,0.928421053 6.86666667,2.21052632 L2.22222222,2.21052632 C1,2.21052632 0,3.20526316 0,4.42105263 L0,15.7894737 C0,17.0052632 1,18 2.22222222,18 L17.7777778,18 C19,18 20,17.0052632 20,15.7894737 L20,4.42105263 C20,3.20526316 19,2.21052632 17.7777778,2.21052632 Z M10,2.21052632 C10.6111111,2.21052632 11.1111111,2.70789474 11.1111111,3.31578947 C11.1111111,3.92368421 10.6111111,4.42105263 10,4.42105263 C9.38888889,4.42105263 8.88888889,3.92368421 8.88888889,3.31578947 C8.88888889,2.70789474 9.38888889,2.21052632 10,2.21052632 Z" id="Shape" fill="#0071C2"></path>
            <path d="M21.4749776,8.59749106 L24.4262117,11.5099505 L14.3333333,21.4000811 L8.57121721,15.7537155 L11.5261476,12.8581444 L14.3319809,15.5969979 L21.4749776,8.59749106 Z" id="Path" stroke="#FFFFFF" stroke-width="2" fill="#32AAFF" stroke-linejoin="round"></path>
        </g>
    </g>
</svg>