<?xml version="1.0" encoding="UTF-8"?>
<svg width="16px" height="16px" viewBox="0 0 16 16" version="1.1" xmlns="http://www.w3.org/2000/svg" xmlns:xlink="http://www.w3.org/1999/xlink">
    <title>ic_android</title>
    <g id="專案管理" stroke="none" stroke-width="1" fill="none" fill-rule="evenodd">
        <g id="assets_pmp" transform="translate(-236.000000, -90.000000)" fill-rule="nonzero">
            <g id="ic_android" transform="translate(236.000000, 90.000000)">
                <rect id="Rectangle" fill="#000000" opacity="0" x="0" y="0" width="16" height="16"></rect>
                <path d="M4.2203125,11.5890625 C4.2203125,11.9546875 4.51875,12.253125 4.8859375,12.253125 L5.646875,12.253125 L5.646875,14.134375 C5.646875,14.6109375 6.0296875,15 6.5,15 C6.971875,15 7.353125,14.6125 7.353125,14.134375 L7.353125,12.2515625 L8.68125,12.2515625 L8.68125,14.1328125 C8.68125,14.609375 9.0640625,14.9984375 9.534375,14.9984375 C10.00625,14.9984375 10.3875,14.6109375 10.3875,14.1328125 L10.3875,12.2515625 L11.1484375,12.2515625 C11.515625,12.2515625 11.8140625,11.953125 11.8140625,11.5875 L11.8140625,5.4125 L4.2203125,5.4125 L4.2203125,11.5890625 L4.2203125,11.5890625 Z M9.8,2.2125 L10.5015625,1.196875 C10.5421875,1.1375 10.5328125,1.0578125 10.478125,1.01875 C10.4234375,0.98125 10.3453125,1 10.3046875,1.059375 L9.5765625,2.115625 C9.096875,1.9265625 8.5625,1.821875 8.0015625,1.821875 C7.440625,1.821875 6.90625,1.9265625 6.4265625,2.115625 L5.6984375,1.0609375 C5.6578125,1.0015625 5.5796875,0.98125 5.525,1.0203125 C5.4703125,1.0578125 5.4609375,1.1359375 5.5015625,1.1984375 L6.203125,2.2140625 C5.0875,2.7328125 4.30625,3.715625 4.20625,4.8640625 L11.8,4.8640625 C11.696875,3.7140625 10.9140625,2.73125 9.8,2.2125 L9.8,2.2125 Z M6.3984375,3.8140625 C6.1671875,3.8140625 5.978125,3.6265625 5.978125,3.39375 C5.978125,3.1625 6.165625,2.9734375 6.3984375,2.9734375 C6.6296875,2.9734375 6.81875,3.1609375 6.81875,3.39375 C6.8171875,3.6265625 6.6296875,3.8140625 6.3984375,3.8140625 Z M9.6546875,3.8140625 C9.4234375,3.8140625 9.234375,3.6265625 9.234375,3.39375 C9.234375,3.1625 9.421875,2.9734375 9.6546875,2.9734375 C9.8859375,2.9734375 10.075,3.1609375 10.075,3.39375 C10.0734375,3.6265625 9.8859375,3.8140625 9.6546875,3.8140625 Z M13.1453125,5.3875 C12.6734375,5.3875 12.2921875,5.775 12.2921875,6.253125 L12.2921875,9.634375 C12.2921875,10.1109375 12.675,10.5 13.1453125,10.5 C13.6171875,10.5 13.9984423,10.1125 13.9984423,9.634375 L13.9984423,6.2515625 C14,5.7734375 13.61875,5.3875 13.1453125,5.3875 Z M2.8546875,5.3875 C2.3828125,5.3875 2.0015625,5.775 2.0015625,6.253125 L2.0015625,9.634375 C2.0015625,10.1109375 2.384375,10.5 2.8546875,10.5 C3.3265625,10.5 3.7078125,10.1125 3.7078125,9.634375 L3.7078125,6.2515625 C3.7078125,5.7734375 3.325,5.3875 2.8546875,5.3875 Z" id="Shape" fill="#A2A6B8"></path>
            </g>
        </g>
    </g>
</svg>