<?xml version="1.0" encoding="UTF-8"?>
<svg width="16px" height="16px" viewBox="0 0 16 16" version="1.1" xmlns="http://www.w3.org/2000/svg" xmlns:xlink="http://www.w3.org/1999/xlink">
    <title>ic_bill</title>
    <g id="專案管理" stroke="none" stroke-width="1" fill="none" fill-rule="evenodd">
        <g id="assets_pmp" transform="translate(-236.000000, -712.000000)" fill-rule="nonzero">
            <g id="ic_bill" transform="translate(236.000000, 712.000000)">
                <rect id="Rectangle" fill="#000000" opacity="0" x="0" y="0" width="16" height="16"></rect>
                <g id="Group-4" transform="translate(2.500000, 2.500000)">
                    <path d="M11.4928125,8.46203362 C11.47125,8.4016624 11.405125,8.37147678 11.34475,8.39303794 L10.465,8.7135804 L10.465,0.97743891 C10.465,0.436972689 10.028,0 9.4875,0 L2.0125,0 C1.472,0 1.035,0.436972689 1.035,0.97743891 L1.035,8.7135804 L0.1538125,8.39303794 C0.140875,8.3887257 0.1279375,8.38585088 0.115,8.38585088 C0.05175,8.38585088 0,8.43759765 0,8.5008437 L0,9.35754015 C0,9.40497469 0.0301875,9.44809699 0.0761875,9.46534592 L5.591875,11.4719705 C5.6939375,11.5093432 5.804625,11.5093432 5.9066875,11.4719705 L11.4238125,9.46678333 C11.4698125,9.4495344 11.5,9.4064121 11.5,9.35897756 L11.5,8.50228111 C11.5,8.48790701 11.497125,8.47497031 11.4928125,8.46203362 Z" id="Shape" fill="#A2A6B8"></path>
                    <path d="M5.856,8.604 L5.856,7.964 C6.22933333,7.88933333 6.51733333,7.71466667 6.72,7.44 C6.92266667,7.16533333 7.024,6.836 7.024,6.452 C7.024,6.17466667 6.948,5.93466667 6.796,5.732 C6.644,5.52933333 6.23466667,5.276 5.568,4.972 C5.22666667,4.81733333 5.056,4.62266667 5.056,4.388 C5.056,4.20133333 5.12,4.04933333 5.248,3.932 C5.376,3.81466667 5.536,3.756 5.728,3.756 C6.032,3.756 6.296,3.89466667 6.52,4.172 L6.52,4.172 L6.872,3.66 C6.61066667,3.33466667 6.272,3.15066667 5.856,3.108 L5.856,3.108 L5.856,2.5 L5.384,2.5 L5.384,3.1 C5.03733333,3.164 4.76533333,3.31866667 4.568,3.564 C4.37066667,3.80933333 4.272,4.11333333 4.272,4.476 C4.272,4.972 4.57866667,5.364 5.192,5.652 C5.512,5.80133333 5.74133333,5.90933333 5.88,5.976 C6.01866667,6.04266667 6.112,6.12133333 6.16,6.212 C6.208,6.30266667 6.232,6.40666667 6.232,6.524 C6.232,7.04666667 5.98133333,7.308 5.48,7.308 C5.10133333,7.308 4.78133333,7.05466667 4.52,6.548 L4.52,6.548 L4,7.044 C4.32,7.61466667 4.78133333,7.932 5.384,7.996 L5.384,7.996 L5.384,8.604 L5.856,8.604 Z" id="$" fill="#FFFFFF"></path>
                </g>
            </g>
        </g>
    </g>
</svg>