<?xml version="1.0" encoding="UTF-8"?>
<svg width="16px" height="16px" viewBox="0 0 16 16" version="1.1" xmlns="http://www.w3.org/2000/svg" xmlns:xlink="http://www.w3.org/1999/xlink">
    <title>ic_default</title>
    <g id="PMP" stroke="none" stroke-width="1" fill="none" fill-rule="evenodd">
        <g id="assets_pmp" transform="translate(-236.000000, -869.000000)">
            <g id="ic_default" transform="translate(236.000000, 869.000000)">
                <rect id="Rectangle" fill="#000000" fill-rule="nonzero" opacity="0" x="0" y="0" width="16" height="16"></rect>
                <g id="Group" transform="translate(2.000000, 2.000000)">
                    <path d="M6,12 C9.313725,12 12,9.313725 12,6 C12,2.68629 9.313725,0 6,0 C2.68629,0 0,2.68629 0,6 C0,9.313725 2.68629,12 6,12 Z M9,9.6973 L9,8.5 C9,7.3954 8.1046,6.5 7,6.5 L5,6.5 C3.89543,6.5 3,7.3954 3,8.5 L3,9.6973 C3.88252,10.2078 4.90714,10.5 6,10.5 C7.09286,10.5 8.1175,10.2078 9,9.6973 Z M6,6 C7.10456,6 8,5.10456 8,4 C8,2.89544 7.10456,2 6,2 C4.89544,2 4,2.89544 4,4 C4,5.10456 4.89544,6 6,6 Z" id="Shape" fill="#A2A6B8"></path>
                    <circle id="Oval" stroke="#A2A6B8" stroke-width="2" cx="6" cy="6" r="5"></circle>
                </g>
            </g>
        </g>
    </g>
</svg>