<?xml version="1.0" encoding="UTF-8"?>
<svg width="12px" height="12px" viewBox="0 0 12 12" version="1.1" xmlns="http://www.w3.org/2000/svg" xmlns:xlink="http://www.w3.org/1999/xlink">
    <title>@ic/12/ic_edit</title>
    <g id="專案管理" stroke="none" stroke-width="1" fill="none" fill-rule="evenodd" opacity="0.5">
        <g id="assets_pmp" transform="translate(-517.000000, -316.000000)">
            <g id="Group" transform="translate(517.000000, 316.000000)">
                <g id="Rectangle" transform="translate(5.000000, 7.000000) rotate(45.000000) translate(-5.000000, -7.000000) translate(3.000000, 0.000000)">
                    <path d="M1,0 L3,0 C3.55228475,-1.01453063e-16 4,0.44771525 4,1 L4,8.56597437 C4,8.68763666 3.97779894,8.80827777 3.93448773,8.9219697 L2.93448773,11.5469697 C2.73787694,12.063073 2.160108,12.3220729 1.64400467,12.1254621 C1.37750821,12.0239396 1.16703473,11.8134662 1.06551227,11.5469697 L0.0655122651,8.9219697 C0.0222010569,8.80827777 -2.98270283e-15,8.68763666 0,8.56597437 L0,1 C-6.76353751e-17,0.44771525 0.44771525,1.01453063e-16 1,0 Z" stroke="#373E52"></path>
                    <rect fill="#373E52" x="0" y="3" width="4" height="1" rx="0.5"></rect>
                </g>
            </g>
        </g>
    </g>
</svg>