<?xml version="1.0" encoding="UTF-8"?>
<svg width="16px" height="16px" viewBox="0 0 16 16" version="1.1" xmlns="http://www.w3.org/2000/svg" xmlns:xlink="http://www.w3.org/1999/xlink">
    <title>ic_frontend</title>
    <g id="專案管理" stroke="none" stroke-width="1" fill="none" fill-rule="evenodd">
        <g id="assets_pmp" transform="translate(-236.000000, -118.000000)" fill="#A2A6B8" fill-rule="nonzero">
            <g id="ic_frontend" transform="translate(236.000000, 118.000000)">
                <rect id="Rectangle" opacity="0" x="0" y="0" width="16" height="16"></rect>
                <path d="M2.26875,1.5 L3.3,13.165625 L8,14.5 L12.68125,13.165625 L13.7328125,1.5 L2.26875,1.5 Z M11.565625,4.2671875 L11.490625,5.0046875 L11.4640625,5.309375 L5.9734375,5.309375 L6.1015625,6.78125 L11.3375,6.78125 L11.2859375,7.1609375 L10.9546875,10.9453125 L10.928125,11.1984375 L8.00625,12.0046875 L8.00625,12.009375 L7.9875,12.009375 L7.9828125,12.0109375 L7.9828125,12.009375 L7.98125,12.009375 L5.034375,11.196875 L4.85625,8.9375 L6.2796875,8.9375 L6.38125,10.08125 L7.98125,10.5140625 L7.9875,10.5140625 L9.58125,10.0828125 L9.759375,8.2296875 L7.9828125,8.2296875 L7.9828125,8.228125 L4.78125,8.228125 L4.425,4.2671875 L4.3984375,3.8875 L11.590625,3.8875 L11.565625,4.2671875 Z" id="Shape"></path>
            </g>
        </g>
    </g>
</svg>