<?xml version="1.0" encoding="UTF-8"?>
<svg width="16px" height="16px" viewBox="0 0 16 16" version="1.1" xmlns="http://www.w3.org/2000/svg" xmlns:xlink="http://www.w3.org/1999/xlink">
    <title>ic_hr</title>
    <g id="專案管理" stroke="none" stroke-width="1" fill="none" fill-rule="evenodd">
        <g id="assets_pmp" transform="translate(-236.000000, -723.000000)" fill-rule="nonzero">
            <g id="ic_hr" transform="translate(236.000000, 723.000000)">
                <rect id="Rectangle" fill="#000000" opacity="0" x="0" y="0" width="16" height="16"></rect>
                <path d="M14.5,3 L1.5,3 C1.225,3 1,3.225 1,3.5 L1,12.5 C1,12.775 1.225,13 1.5,13 L14.5,13 C14.775,13 15,12.775 15,12.5 L15,3.5 C15,3.225 14.775,3 14.5,3 Z M4.5,6.4 C4.55,5.65 5.1625,5.05 5.9125,5 C6.7875,4.95 7.5125,5.6375 7.5125,6.5 C7.5125,7.325 6.8375,8 6.0125,8 C5.1375,8.0125 4.4375,7.275 4.5,6.4 L4.5,6.4 Z M9,10.75 C9,10.8875 8.8875,11 8.75,11 L3.25,11 C3.1125,11 3,10.8875 3,10.75 L3,10 C3,9 5,8.5 6,8.5 C7,8.5 9,9 9,10 L9,10.75 Z M13,7.5 L11,7.5 L11,7 L13,7 L13,7.5 Z M13,6.5 L9,6.5 L9,6 L13,6 L13,6.5 Z M13,5.5 L9,5.5 L9,5 L13,5 L13,5.5 Z" id="Shape" fill="#A2A6B8"></path>
            </g>
        </g>
    </g>
</svg>