<?xml version="1.0" encoding="UTF-8"?>
<svg width="16px" height="16px" viewBox="0 0 16 16" version="1.1" xmlns="http://www.w3.org/2000/svg" xmlns:xlink="http://www.w3.org/1999/xlink">
    <title>ic_it</title>
    <g id="專案管理" stroke="none" stroke-width="1" fill="none" fill-rule="evenodd">
        <g id="assets_pmp" transform="translate(-236.000000, -304.000000)" fill-rule="nonzero">
            <g id="ic_it" transform="translate(236.000000, 304.000000)">
                <rect id="Rectangle" fill="#000000" opacity="0" x="0" y="0" width="16" height="16"></rect>
                <path d="M14.2491472,4.790672 L13.2726176,5.35438559 C12.9972576,5.51341439 12.6453376,5.41914239 12.4864304,5.143808 C12.3274112,4.8684592 12.421688,4.51653759 12.696888,4.3574928 L13.6722352,3.7944672 C13.2023104,3.1190048 12.6150368,2.5318352 11.9396272,2.06180161 L11.3763536,3.03702881 C11.2174304,3.31236161 10.8655264,3.40663361 10.5901664,3.24775041 C10.3147744,3.08872161 10.2205296,2.73680161 10.3795488,2.4614672 L10.9434288,1.48496159 C10.2148048,1.14119519 9.41649759,0.922128 8.57543359,0.852653906 L8.57543359,1.97822727 C8.57543359,2.29599527 8.31791839,2.55378886 7.999848,2.55378886 C7.6820832,2.55378886 7.42427841,2.29599527 7.42427841,1.97822727 L7.42427841,0.852653906 C6.58337441,0.9221275 5.7850192,1.1411787 5.0565712,1.48486511 L5.6204672,2.4614667 C5.77937441,2.7368155 5.68506561,3.08872111 5.40970561,3.24774991 C5.13452161,3.4066347 4.78242561,3.3123627 4.62337441,3.03702831 L4.06037281,2.06180111 C3.38481922,2.5318347 2.79768961,3.11908431 2.32765281,3.7944667 L3.30282402,4.3574923 C3.57820002,4.51653709 3.67246081,4.86847309 3.51358561,5.1438075 C3.35467841,5.4191403 3.00259841,5.5134283 2.72722241,5.35438509 L1.75069281,4.7907675 C1.32932961,5.6837787 1.09280802,6.68110191 1.09280802,7.7340043 C1.09280802,11.5486027 4.18511042,14.6409051 7.99984802,14.6409051 C11.8147456,14.6409051 14.907144,11.5486331 14.907144,7.7340043 C14.907144,6.68103841 14.6706224,5.6836832 14.2491472,4.790672 Z M11.9878992,10.0362352 C10.7162448,12.2384704 7.90003841,12.9931744 5.69752161,11.7216688 C3.49498881,10.4500672 2.74042881,7.63388 4.0121312,5.4315968 C5.28365761,3.22931359 8.100008,2.47464159 10.3025088,3.7461312 C12.5047232,5.01776641 13.2594256,7.833952 11.9878992,10.0362352 Z M10.4259184,4.7741072 L8.7862432,7.5361392 C8.627336,7.811312 8.275384,7.905744 7.999912,7.7468768 C7.724712,7.587832 7.6302912,7.235768 7.78931041,6.96056159 L9.43527041,4.188136 C8.99177761,4.00907359 8.50760481,3.9096368 7.999912,3.9096368 C5.88075041,3.9096368 4.1626928,5.627624 4.1626928,7.7468752 C4.1626928,9.86593441 5.88075039,11.5839376 7.999912,11.5839376 C10.1193616,11.5839376 11.8373072,9.86596641 11.8373072,7.7468752 C11.8373072,6.547992 11.2872096,5.47783841 10.4259184,4.7741072 Z" id="Shape" fill="#A2A6B8"></path>
            </g>
        </g>
    </g>
</svg>