<?xml version="1.0" encoding="UTF-8"?>
<svg width="16px" height="16px" viewBox="0 0 16 16" version="1.1" xmlns="http://www.w3.org/2000/svg" xmlns:xlink="http://www.w3.org/1999/xlink">
    <title>ic_ios</title>
    <g id="專案管理" stroke="none" stroke-width="1" fill="none" fill-rule="evenodd">
        <g id="assets_pmp" transform="translate(-236.000000, -60.000000)" fill-rule="nonzero">
            <g id="ic_ios" transform="translate(236.000000, 60.000000)">
                <rect id="Rectangle" fill="#000000" opacity="0" x="0" y="0" width="16" height="16"></rect>
                <path d="M11.678125,8.3703125 C11.671875,7.3046875 12.1546875,6.5015625 13.1296875,5.909375 C12.584375,5.128125 11.759375,4.6984375 10.671875,4.615625 C9.6421875,4.534375 8.515625,5.215625 8.103125,5.215625 C7.6671875,5.215625 6.6703125,4.64375 5.8859375,4.64375 C4.2671875,4.66875 2.546875,5.934375 2.546875,8.509375 C2.546875,9.2703125 2.6859375,10.05625 2.9640625,10.865625 C3.3359375,11.93125 4.6765625,14.5421875 6.075,14.5 C6.80625,14.4828125 7.3234375,13.98125 8.275,13.98125 C9.1984375,13.98125 9.6765625,14.5 10.4921875,14.5 C11.903125,14.4796875 13.115625,12.10625 13.46875,11.0375 C11.5765625,10.1453125 11.678125,8.425 11.678125,8.3703125 Z M10.0359375,3.6046875 C10.828125,2.6640625 10.75625,1.8078125 10.7328125,1.5 C10.0328125,1.540625 9.2234375,1.9765625 8.7625,2.5125 C8.2546875,3.0875 7.95625,3.7984375 8.0203125,4.6 C8.7765625,4.6578125 9.4671875,4.26875 10.0359375,3.6046875 Z" id="Shape" fill="#A2A6B8"></path>
            </g>
        </g>
    </g>
</svg>