<?xml version="1.0" encoding="UTF-8"?>
<svg width="16px" height="16px" viewBox="0 0 16 16" version="1.1" xmlns="http://www.w3.org/2000/svg" xmlns:xlink="http://www.w3.org/1999/xlink">
    <title>ic_java</title>
    <g id="專案管理" stroke="none" stroke-width="1" fill="none" fill-rule="evenodd">
        <g id="assets_pmp" transform="translate(-236.000000, -174.000000)" fill-rule="nonzero">
            <g id="ic_java" transform="translate(236.000000, 174.000000)">
                <rect id="Rectangle" fill="#000000" opacity="0" x="0" y="0" width="16" height="16"></rect>
                <path d="M14.2265625,8.64375 L12.5234375,2.85 C12.4171875,2.53125 12.1625,2.3171875 11.821875,2.3171875 C11.48125,2.3171875 11.2046875,2.509375 11.0984375,2.828125 L9.9703125,6.19375 L6.034375,6.19375 L4.90625,2.8296875 C4.8,2.5109375 4.5234375,2.31875 4.1828125,2.31875 C3.8421875,2.31875 3.565625,2.53125 3.48125,2.8515625 L1.7796875,8.64375 C1.715625,8.85625 1.8015625,9.090625 1.971875,9.21875 L7.99375,13.734375 L14.0359375,9.21875 C14.2046875,9.0921875 14.290625,8.8578125 14.2265625,8.64375 Z" id="Path" fill="#A2A6B8"></path>
            </g>
        </g>
    </g>
</svg>