<?xml version="1.0" encoding="UTF-8"?>
<svg width="16px" height="16px" viewBox="0 0 16 16" version="1.1" xmlns="http://www.w3.org/2000/svg" xmlns:xlink="http://www.w3.org/1999/xlink">
    <title>ic_law</title>
    <g id="專案管理" stroke="none" stroke-width="1" fill="none" fill-rule="evenodd">
        <g id="assets_pmp" transform="translate(-236.000000, -459.000000)" fill-rule="nonzero">
            <g id="ic_law" transform="translate(236.000000, 459.000000)">
                <rect id="Rectangle" fill="#000000" opacity="0" x="0" y="0" width="16" height="16"></rect>
                <g id="62627" transform="translate(1.000000, 3.000000)" fill="#A2A6B8">
                    <polygon id="Path" points="14 3.65293756 14 3.34703374 6.99693392 0 0 3.34407773 0 3.65583617 6.99693392 7"></polygon>
                    <path d="M2.1875,5.6875 L2.1875,7.64852698 L6.42518894,9.625 L7.13728201,9.625 L11.3633187,7.65395701 C11.3673868,7.64531961 11.3711934,7.63671035 11.375,7.62801668 L11.375,5.6875 L6.78123547,7.83002488 L2.1875,5.6875 Z" id="Path"></path>
                    <polygon id="Path" points="13.1912034 8.69088956 13.1912034 4.8125 12.6213264 5.08868609 12.6213264 8.69088956 12.25 9.77801477 12.8113052 10.5 13.0012245 10.5 13.5625 9.77801477"></polygon>
                </g>
            </g>
        </g>
    </g>
</svg>