<?xml version="1.0" encoding="UTF-8"?>
<svg width="16px" height="16px" viewBox="0 0 16 16" version="1.1" xmlns="http://www.w3.org/2000/svg" xmlns:xlink="http://www.w3.org/1999/xlink">
    <title>ic_money</title>
    <g id="專案管理" stroke="none" stroke-width="1" fill="none" fill-rule="evenodd">
        <g id="assets_pmp" transform="translate(-236.000000, -669.000000)" fill-rule="nonzero">
            <g id="ic_money" transform="translate(236.000000, 669.000000)">
                <g id="financial_fill">
                    <rect id="Rectangle" fill="#000000" opacity="0" x="0" y="0" width="16" height="16"></rect>
                    <path d="M7.52148243,2.14574219 C7.4421832,2.08067424 7.32319559,2.03798372 7.16444209,2.01758805 C7.0057661,1.99727496 6.86197326,2.01965239 6.73290852,2.08472034 C6.56431044,2.17414749 6.44532283,2.24945456 6.37586818,2.31047641 C6.30641352,2.37149826 6.20230905,2.41418878 6.06339974,2.43854798 C5.98402298,2.45481496 5.89720466,2.45085143 5.80302229,2.42632709 C5.70643163,2.40135915 5.60971565,2.37694456 5.51287856,2.35308436 C5.41983465,2.32977964 5.32536768,2.31347244 5.2301764,2.3042834 C5.14087756,2.29619119 5.06150081,2.31245818 4.99204615,2.35308436 C4.85321435,2.44259408 4.80856493,2.55043513 4.85809788,2.67652493 C4.90778587,2.80261473 4.9970072,2.90219842 5.12599442,2.97544115 C5.25106504,3.05281789 5.37271443,3.13630611 5.49055385,3.22563899 C5.6139776,3.31868948 5.72639056,3.4272906 5.825347,3.54907955 C5.87495747,3.6141475 5.93441252,3.68739024 6.00386717,3.76872518 C6.0712123,3.84742191 6.13572659,3.92881554 6.19727049,4.01273 C6.26858204,4.10471075 6.33802694,4.19831577 6.40555694,4.29348004 L9.48574695,4.29348004 C9.55506971,4.21233306 9.61965856,4.12673651 9.67915027,4.03717176 C9.73065039,3.96139079 9.7852754,3.88807625 9.84286481,3.81744357 C9.89634842,3.75137411 9.95090228,3.6862964 10.0065018,3.62223971 C10.1028286,3.51147337 10.2020629,3.40361714 10.3040871,3.29879914 C10.4033081,3.19715111 10.5471784,3.09740227 10.7356207,2.99988292 C10.8118509,2.96176663 10.8801624,2.90780811 10.9365431,2.84117657 C10.9911146,2.77610862 11.025842,2.71095809 11.0407251,2.64597272 C11.0555307,2.58082219 11.0456086,2.51781858 11.0108813,2.45679673 C10.976154,2.39577488 10.9092574,2.34895568 10.8100364,2.31642171 C10.7207376,2.29197994 10.6438413,2.28388773 10.5795028,2.29197994 C10.5149316,2.30015472 10.4505931,2.31435737 10.3860219,2.33467046 C10.3215283,2.35506612 10.2545542,2.37736098 10.1852546,2.40180275 C10.1157224,2.42624452 10.0313846,2.43838283 9.93224118,2.43838283 C9.83302024,2.43838283 9.75124048,2.42418018 9.68674687,2.39569231 C9.62386515,2.36813181 9.56400238,2.33332648 9.5082267,2.29189736 C9.45357766,2.25127118 9.39660314,2.20849809 9.33707058,2.16374323 C9.27753801,2.11898837 9.19816126,2.08447262 9.09894032,2.06003086 C8.90065348,1.9949629 8.74182246,1.98282459 8.62283485,2.02345078 C8.50369221,2.06407696 8.3847046,2.12922748 8.26571699,2.21865463 C8.16649605,2.29998957 8.08719682,2.35704789 8.02766425,2.38958186 C7.99782046,2.40576628 7.97309274,2.41394106 7.95324855,2.41394106 C7.8963252,2.39091193 7.84152081,2.36233012 7.789534,2.32856002 M5.42024651,5.95890583 C5.20322579,6.15780926 4.98169606,6.35106096 4.7558538,6.53848952 C4.4705309,6.77215124 4.20774731,7.03548239 3.97138826,7.32458965 C3.73170188,7.61670895 3.52966937,7.94158363 3.37063648,8.29061753 C3.21041017,8.64147251 3.09971681,9.01685184 3.03847889,9.41650779 C2.97731848,9.81624631 2.98902345,10.2337381 3.07390386,10.6689833 C3.14932728,11.0598864 3.30474758,11.4528539 3.54039731,11.848216 C3.775892,12.2434956 4.09394162,12.601039 4.49446864,12.9206812 C4.89491815,13.240406 5.38257356,13.5002649 5.95735736,13.7000929 C6.53221867,13.8999209 7.19188288,14 7.93627247,14 C8.6619031,14 9.30978482,13.9133804 9.87984012,13.7400585 C10.4498954,13.5668192 10.9423568,13.3337141 11.3569143,13.040578 C11.7715493,12.7475245 12.1649448,12.4187167 12.414625,12.0235197 C12.6643827,11.6283227 12.8530576,11.1524514 12.9378605,10.7082057 C13.0320428,10.1662756 13.0085554,9.73458107 12.9378605,9.29479438 C12.867088,8.85517284 12.6950017,8.44841557 12.5160164,8.11085493 C12.3368761,7.77329428 12.1272719,7.47792872 11.8869712,7.22467566 C11.646593,6.97158776 11.4134237,6.75177698 11.187231,6.56524335 C10.9139859,6.35203846 10.7226755,6.22702212 10.5154743,6.03594694 C10.3081955,5.84495434 10.1529302,5.7748494 10.0116179,5.62365724 C9.84201213,5.45487692 9.62085796,5.33398925 9.5077616,5.19179761 L6.32749797,5.19179761" id="Shape" fill="#A2A6B8"></path>
                </g>
                <path d="M8.2,12.64 L8.2,12 C8.57333333,11.9253333 8.86133333,11.7506667 9.064,11.476 C9.26666667,11.2013333 9.368,10.872 9.368,10.488 C9.368,10.2106667 9.292,9.97066667 9.14,9.768 C8.988,9.56533333 8.57866667,9.312 7.912,9.008 C7.57066667,8.85333333 7.4,8.65866667 7.4,8.424 C7.4,8.23733333 7.464,8.08533333 7.592,7.968 C7.72,7.85066667 7.88,7.792 8.072,7.792 C8.376,7.792 8.64,7.93066667 8.864,8.208 L8.864,8.208 L9.216,7.696 C8.95466667,7.37066667 8.616,7.18666667 8.2,7.144 L8.2,7.144 L8.2,6.536 L7.728,6.536 L7.728,7.136 C7.38133333,7.2 7.10933333,7.35466667 6.912,7.6 C6.71466667,7.84533333 6.616,8.14933333 6.616,8.512 C6.616,9.008 6.92266667,9.4 7.536,9.688 C7.856,9.83733333 8.08533333,9.94533333 8.224,10.012 C8.36266667,10.0786667 8.456,10.1573333 8.504,10.248 C8.552,10.3386667 8.576,10.4426667 8.576,10.56 C8.576,11.0826667 8.32533333,11.344 7.824,11.344 C7.44533333,11.344 7.12533333,11.0906667 6.864,10.584 L6.864,10.584 L6.344,11.08 C6.664,11.6506667 7.12533333,11.968 7.728,12.032 L7.728,12.032 L7.728,12.64 L8.2,12.64 Z" id="$" fill="#FFFFFF"></path>
            </g>
        </g>
    </g>
</svg>