<?xml version="1.0" encoding="UTF-8"?>
<svg width="24px" height="24px" viewBox="0 0 24 24" version="1.1" xmlns="http://www.w3.org/2000/svg" xmlns:xlink="http://www.w3.org/1999/xlink">
    <title>@ic/missiondate</title>
    <g id="@ic/missiondate" stroke="none" stroke-width="1" fill="none" fill-rule="evenodd" opacity="0.5">
        <g id="Group-6" transform="translate(2.000000, 3.000000)">
            <path d="M5,0 L5,2 L9,2 L9,0 L11,0 L11,2 L12,2 C13.1045695,2 14,2.8954305 14,4 L14,13 C14,14.1045695 13.1045695,15 12,15 L2,15 C0.8954305,15 1.3527075e-16,14.1045695 0,13 L0,4 C-1.3527075e-16,2.8954305 0.8954305,2 2,2 L3,2 L3,0 L5,0 Z" id="Combined-Shape" fill="#242666"></path>
            <rect id="Rectangle" fill="#F5FBFF" x="2" y="4" width="10" height="9"></rect>
            <circle id="Oval" stroke="#242666" stroke-width="2" fill="#F5FBFF" cx="14" cy="12" r="6"></circle>
            <polygon id="Path" fill="#242666" fill-rule="nonzero" points="14.4892226 8 13.5 8 13.5 11.9344262 16.8817358 14 17.5 13.1934426 14.4892226 11.442623"></polygon>
        </g>
    </g>
</svg>