<?xml version="1.0" encoding="UTF-8"?>
<svg width="16px" height="16px" viewBox="0 0 16 16" version="1.1" xmlns="http://www.w3.org/2000/svg" xmlns:xlink="http://www.w3.org/1999/xlink">
    <title>ic_mis</title>
    <g id="專案管理" stroke="none" stroke-width="1" fill="none" fill-rule="evenodd">
        <g id="assets_pmp" transform="translate(-236.000000, -251.000000)" fill-rule="nonzero">
            <g id="ic_mis" transform="translate(236.000000, 251.000000)">
                <rect id="Rectangle" fill="#000000" opacity="0" x="0" y="0" width="16" height="16"></rect>
                <path d="M11.936,2 C12.5084189,2 12.9895733,2.42982919 13.053875,2.99862499 L14,11.375 L13.994375,11.375 C14.0372002,11.9618437 13.8339274,12.5400475 13.4332906,12.9709881 C13.0326539,13.4019286 12.4707793,13.64675 11.882375,13.64675 L4.117625,13.64675 C3.52922073,13.64675 2.9673461,13.4019286 2.56670936,12.9709881 C2.16607262,12.5400475 1.96279976,11.9618437 2.005625,11.375 L2,11.375 L2.946125,2.99862499 C3.01041061,2.42997146 3.49134933,2.000193 4.063625,2 L11.936,2 Z M11.882375,10.536872 L4.117625,10.536872 C4.0658925,10.536872 4.01423818,10.5408941 3.963125,10.548875 L3.99199999,10.54475 C3.97165787,10.5472457 3.95139811,10.5503722 3.93124999,10.554125 L3.963125,10.548875 C3.944375,10.5515 3.926375,10.554875 3.908375,10.559 L3.930875,10.554125 C3.86374603,10.5670299 3.79814258,10.5868869 3.735125,10.613375 L3.75462499,10.605125 C3.73549999,10.612625 3.71637499,10.620875 3.698,10.6295 L3.735125,10.613375 C3.71932053,10.6199673 3.70369024,10.6269697 3.68824999,10.634375 L3.698,10.6295 C3.678875,10.6385 3.65975,10.64825 3.64175,10.658375 L3.68824999,10.634375 C3.59202471,10.6805514 3.5038897,10.7419673 3.42724999,10.81625 L3.45275,10.79225 C3.43875992,10.8048619 3.42512947,10.8178671 3.411875,10.83125 L3.426875,10.81625 C3.4140252,10.8289091 3.40152061,10.8419138 3.389375,10.85525 L3.411875,10.83125 C3.39687501,10.846625 3.381875,10.862375 3.368,10.878875 L3.38899999,10.85525 C3.37676237,10.8684267 3.36488304,10.8819316 3.353375,10.89575 L3.368,10.878875 C3.35585641,10.8927958 3.34410187,10.9070513 3.33274999,10.921625 L3.353375,10.89575 C3.33837501,10.9145 3.323375,10.933625 3.30912499,10.9535 L3.33274999,10.921625 C3.32149999,10.936625 3.31024999,10.951625 3.29975,10.966625 L3.30912499,10.9535 C3.29787499,10.968875 3.287375,10.984625 3.27725,11.00075 L3.29975,10.966625 C3.2885,10.983125 3.27725,11 3.267125,11.01725 L3.27725,11.00075 C3.26675,11.017625 3.256625,11.0345 3.24724999,11.052125 L3.267125,11.01725 C3.255875,11.036 3.245375,11.05475 3.23525,11.07425 L3.246875,11.052125 C3.23937499,11.065625 3.23262499,11.0795 3.2255,11.093375 L3.23525,11.07425 C3.22622149,11.091742 3.2177177,11.1095 3.20975,11.1275 L3.2255,11.09375 C3.21462499,11.115875 3.20449999,11.13875 3.19549999,11.162 L3.20975,11.1275 C3.20242131,11.1439337 3.19554374,11.160565 3.189125,11.177375 L3.195125,11.162 C3.18810175,11.1798067 3.18159899,11.1978144 3.175625,11.216 L3.189125,11.177375 C3.181625,11.19725 3.174875,11.2175 3.16849999,11.238125 L3.175625,11.216 C3.17,11.232875 3.16475,11.24975 3.16025,11.266625 L3.16849999,11.238125 C3.16189683,11.2594194 3.15601844,11.2809318 3.150875,11.302625 L3.16025,11.266625 C3.1547572,11.2863434 3.14987983,11.306228 3.145625,11.32625 L3.150875,11.302625 C3.146375,11.32175 3.14262501,11.34125 3.139625,11.36075 L3.145625,11.32625 C3.08440403,11.6189037 3.158358,11.9235626 3.3469391,12.1555785 C3.5355202,12.3875944 3.8186364,12.5222475 4.117625,12.5221251 L11.882375,12.5221251 C12.1920918,12.5221846 12.4840864,12.3776758 12.6718879,12.1313933 C12.8596893,11.8851107 12.9217717,11.5652835 12.83975,11.266625 L12.849125,11.302625 C12.8439816,11.2809318 12.8381032,11.2594194 12.8315,11.238125 L12.83975,11.266625 C12.8352034,11.249619 12.8302016,11.2327379 12.82475,11.216 L12.8315,11.2385 C12.8252942,11.2179053 12.8184155,11.1975194 12.810875,11.177375 L12.824375,11.216 C12.818401,11.1978144 12.8118983,11.1798067 12.804875,11.162 L12.810875,11.177 C12.8044499,11.1603161 12.7975724,11.14381 12.79025,11.1275 L12.804875,11.162 C12.7956236,11.1387482 12.7854913,11.1158567 12.7745,11.093375 L12.79025,11.1275 C12.7822823,11.1095 12.7737785,11.091742 12.76475,11.07425 L12.7745,11.093375 C12.7675749,11.0794561 12.7603229,11.0657023 12.75275,11.052125 L12.76475,11.074625 C12.7547616,11.0551532 12.7441308,11.0360177 12.732875,11.01725 L12.75275,11.052125 C12.743266,11.0347039 12.7332615,11.0175712 12.72275,11.00075 L12.732875,11.01725 C12.722514,11.0000493 12.711634,10.9831665 12.70025,10.966625 L12.72275,11.000375 C12.7125726,10.9844503 12.7019432,10.968819 12.690875,10.9535 L12.70025,10.966625 C12.6896725,10.9513197 12.6786681,10.9363138 12.66725,10.921625 L12.690875,10.9535 C12.67671,10.9337117 12.661825,10.9144488 12.64625,10.89575 L12.66725,10.922 C12.656027,10.9073045 12.6443975,10.892924 12.632375,10.878875 L12.64625,10.89575 C12.6347473,10.881805 12.6228679,10.8681749 12.610625,10.854875 L12.632375,10.878875 C12.6181395,10.8626509 12.6033818,10.8468927 12.588125,10.831625 L12.610625,10.854875 C12.5984742,10.8416655 12.5859697,10.8287858 12.573125,10.81625 L12.588125,10.83125 C12.5748705,10.8178671 12.5612401,10.8048619 12.54725,10.79225 L12.57275,10.81625 C12.4959535,10.741887 12.4077028,10.6803521 12.311375,10.634 L12.358625,10.658375 C12.3401826,10.6482797 12.3214231,10.6387748 12.302375,10.629875 L12.311375,10.634 C12.2960585,10.6266006 12.2805533,10.6195983 12.264875,10.613 L12.302375,10.629875 C12.283625,10.620875 12.264875,10.613 12.24575,10.6055 L12.2645,10.613 C12.2015886,10.5866649 12.1361124,10.5669341 12.069125,10.554125 L12.091625,10.559 C12.0734737,10.5551116 12.0552164,10.5517353 12.036875,10.548875 L12.069125,10.554125 C12.0489769,10.5503722 12.0287171,10.5472457 12.008375,10.54475 L12.036875,10.5485 C11.9857531,10.5406357 11.9340981,10.536749 11.882375,10.536872 L11.882375,10.536872 Z M11.706125,11 C11.8953201,10.9999655 12.0701583,11.1008801 12.1647659,11.2647222 C12.2593734,11.4285642 12.2593734,11.6304358 12.1647659,11.7942779 C12.0701583,11.9581199 11.8953201,12.0590345 11.706125,12.059 C11.4137279,12.0589467 11.1767215,11.8218971 11.1767215,11.5295 C11.1767215,11.2371029 11.4137279,11.0000533 11.706125,11 L11.706125,11 Z M10.25,5.9375 L5.75,5.9375 L5.75,7.0625 L10.25,7.0625 L10.25,5.9375 Z" id="Shape" fill="#A2A6B8"></path>
            </g>
        </g>
    </g>
</svg>