<?xml version="1.0" encoding="UTF-8"?>
<svg width="16px" height="16px" viewBox="0 0 16 16" version="1.1" xmlns="http://www.w3.org/2000/svg" xmlns:xlink="http://www.w3.org/1999/xlink">
    <title>ic_marketing</title>
    <g id="專案管理" stroke="none" stroke-width="1" fill="none" fill-rule="evenodd">
        <g id="assets_pmp" transform="translate(-236.000000, -819.000000)">
            <g id="ic_marketing" transform="translate(236.000000, 819.000000)">
                <rect id="Rectangle" fill="#000000" fill-rule="nonzero" opacity="0" x="0" y="0" width="16" height="16"></rect>
                <g id="Group" transform="translate(2.000000, 1.500000)" fill="#A2A6B8">
                    <path d="M11.5714286,0.5 L0.428571429,0.5 C0.191517857,0.5 0,0.691517857 0,0.928571429 L0,9.5 C0,9.73705357 0.191517857,9.92857143 0.428571429,9.92857143 L11.5714286,9.92857143 C11.8084821,9.92857143 12,9.73705357 12,9.5 L12,0.928571429 C12,0.691517857 11.8084821,0.5 11.5714286,0.5 Z M10.3352679,3.10357143 L6.35758929,7.08392857 C6.31607143,7.12544643 6.24776786,7.12544643 6.20625,7.08392857 L4.67276786,5.55044643 L2.3625,7.86205357 C2.32098214,7.90357143 2.25267857,7.90357143 2.21116071,7.86205357 L1.71830357,7.36919643 C1.67678571,7.32767857 1.67678571,7.259375 1.71830357,7.21785714 L4.59642857,4.33839286 C4.63794643,4.296875 4.70625,4.296875 4.74776786,4.33839286 L6.28125,5.87053571 L9.68973214,2.46071429 C9.73125,2.41919643 9.79955357,2.41919643 9.84107143,2.46071429 L10.3339286,2.95357143 C10.3767857,2.99375 10.3767857,3.06205357 10.3352679,3.10357143 Z" id="Shape" fill-rule="nonzero"></path>
                    <rect id="Rectangle" x="5.5" y="0" width="1" height="2"></rect>
                    <path d="M5.6312996,10 L5.6312996,10.5 L3.0562996,12.1890625 C2.9984871,12.2265625 2.9828621,12.303125 3.0203621,12.3609375 L3.4937996,13.0984375 C3.5312996,13.1578125 3.6094246,13.1734375 3.6672371,13.1359375 L6.1875496,11.4828125 L8.7078621,13.1359375 C8.7656746,13.1734375 8.8437996,13.1578125 8.8812996,13.1 L9.3547371,12.3609375 C9.3922371,12.303125 9.3750496,12.2265625 9.3187996,12.1890625 L6.7500496,10.5046875 L6.7500496,10 L5.6312996,10 Z" id="Shape" fill-rule="nonzero"></path>
                </g>
            </g>
        </g>
    </g>
</svg>