<?xml version="1.0" encoding="UTF-8"?>
<svg width="24px" height="24px" viewBox="0 0 24 24" version="1.1" xmlns="http://www.w3.org/2000/svg" xmlns:xlink="http://www.w3.org/1999/xlink">
    <title>@ic/mark_chat_unread</title>
    <g id="@ic/mark_chat_unread" stroke="none" stroke-width="1" fill="none" fill-rule="evenodd">
        <g id="mark_chat_unread-24px" transform="translate(1.000000, 3.000000)">
            <rect id="Rectangle" x="0" y="0" width="22.8" height="22.8"></rect>
            <path d="M20.9,6.631 L20.9,15.2 C20.9,16.245 20.045,17.1 19,17.1 L5.7,17.1 L1.9,20.9 L1.9,3.8 C1.9,2.755 2.755,1.9 3.8,1.9 L13.395,1.9 C13.338,2.204 13.3,2.527 13.3,2.85 C13.3,5.472 15.428,7.6 18.05,7.6 C19.1235,7.6 20.102,7.2295 20.9,6.631 Z" id="Shape" fill="#0071C2" fill-rule="nonzero"></path>
            <path d="M15.2,2.85 C15.2,4.427 16.473,5.7 18.05,5.7 C19.627,5.7 20.9,4.427 20.9,2.85 C20.9,1.273 19.627,0 18.05,0 C16.473,0 15.2,1.273 15.2,2.85 Z" id="Path" fill="#32AAFF" fill-rule="nonzero"></path>
        </g>
    </g>
</svg>