<?xml version="1.0" encoding="UTF-8"?>
<svg width="16px" height="16px" viewBox="0 0 16 16" version="1.1" xmlns="http://www.w3.org/2000/svg" xmlns:xlink="http://www.w3.org/1999/xlink">
    <title>ic_office</title>
    <g id="專案管理" stroke="none" stroke-width="1" fill="none" fill-rule="evenodd">
        <g id="assets_pmp" transform="translate(-236.000000, -748.000000)" fill-rule="nonzero">
            <g id="ic_office" transform="translate(236.000000, 748.000000)">
                <rect id="Rectangle" fill="#000000" opacity="0" x="0" y="0" width="16" height="16"></rect>
                <path d="M12.6666667,4.66666667 C13.2189514,4.66666667 13.6666667,5.11438192 13.6666667,5.66666667 L13.6666667,12.3333333 C13.6666667,12.8856181 13.2189514,13.3333333 12.6666667,13.3333333 L11.399,13.3336667 C11.5582194,13.0586294 11.6492049,12.7494389 11.6643333,12.432 L11.6666667,12.3333333 L11.6666667,4.66666667 L12.6666667,4.66666667 Z M10,2.66666667 C10.5522847,2.66666667 11,3.11438192 11,3.66666667 L11,12.3333333 C11,12.8856181 10.5522847,13.3333333 10,13.3333333 L3.33333333,13.3333333 C2.78104858,13.3333333 2.33333333,12.8856181 2.33333333,12.3333333 L2.33333333,3.66666667 C2.33333333,3.11438192 2.78104858,2.66666667 3.33333333,2.66666667 L10,2.66666667 Z M7,7.66666667 L4.33333333,7.66666667 L4.33333333,8.66666667 L7,8.66666667 L7,7.66666667 Z M9,5.66666667 L4.33333333,5.66666667 L4.33333333,6.66666667 L9,6.66666667 L9,5.66666667 Z" id="Shape" fill="#A2A6B8"></path>
            </g>
        </g>
    </g>
</svg>