<?xml version="1.0" encoding="UTF-8"?>
<svg width="16px" height="16px" viewBox="0 0 16 16" version="1.1" xmlns="http://www.w3.org/2000/svg" xmlns:xlink="http://www.w3.org/1999/xlink">
    <title>ic_pm</title>
    <g id="專案管理" stroke="none" stroke-width="1" fill="none" fill-rule="evenodd">
        <g id="assets_pmp" transform="translate(-236.000000, -564.000000)" fill-rule="nonzero">
            <g id="ic_pm" transform="translate(236.000000, 564.000000)">
                <rect id="Rectangle" fill="#000000" opacity="0" x="0" y="0" width="16" height="16"></rect>
                <path d="M13.5020747,14 C13.5684647,14 13.6307054,13.9875519 13.6887967,13.9626556 C13.746888,13.9377593 13.8008299,13.9004149 13.8506224,13.8506224 C13.9004149,13.8008299 13.9377593,13.746888 13.9626556,13.6887967 C13.9875519,13.6307054 14,13.5684647 14,13.5020747 L14,13.5020747 L14,2.49792531 C14,2.43153527 13.9875519,2.36929461 13.9626556,2.31120332 C13.9377593,2.25311203 13.9004149,2.19917012 13.8506224,2.14937759 C13.8008299,2.09958506 13.746888,2.06224066 13.6887967,2.0373444 C13.6307054,2.01244813 13.5684647,2 13.5020747,2 L13.5020747,2 L2.49792531,2 C2.43153527,2 2.36929461,2.01244813 2.31120332,2.0373444 C2.25311203,2.06224066 2.19917012,2.09958506 2.14937759,2.14937759 C2.09958506,2.19917012 2.06224066,2.25311203 2.0373444,2.31120332 C2.01244813,2.36929461 2,2.43153527 2,2.49792531 L2,2.49792531 L2,13.5020747 C2,13.5684647 2.01244813,13.6307054 2.0373444,13.6887967 C2.06224066,13.746888 2.09958506,13.8008299 2.14937759,13.8506224 C2.19917012,13.9004149 2.25311203,13.9377593 2.31120332,13.9626556 C2.36929461,13.9875519 2.43153527,14 2.49792531,14 L2.49792531,14 L13.5020747,14 Z M7.0994152,11.3333333 L3.56725146,11.3333333 C3.53606238,11.3333333 3.50877193,11.3255361 3.48538012,11.3099415 C3.4619883,11.294347 3.43859649,11.2748538 3.41520468,11.251462 C3.39181287,11.2280702 3.37231969,11.2046784 3.35672515,11.1812865 C3.3411306,11.1578947 3.33333333,11.1306043 3.33333333,11.0994152 L3.33333333,11.0994152 L3.33333333,3.56725146 C3.33333333,3.53606238 3.3411306,3.50877193 3.35672515,3.48538012 C3.37231969,3.4619883 3.39181287,3.43859649 3.41520468,3.41520468 C3.43859649,3.39181287 3.4619883,3.37231969 3.48538012,3.35672515 C3.50877193,3.3411306 3.53606238,3.33333333 3.56725146,3.33333333 L3.56725146,3.33333333 L7.0994152,3.33333333 C7.13060429,3.33333333 7.16179337,3.3411306 7.19298246,3.35672515 C7.22417154,3.37231969 7.24756335,3.39181287 7.26315789,3.41520468 C7.27875244,3.43859649 7.29434698,3.4619883 7.30994152,3.48538012 C7.32553606,3.50877193 7.33333333,3.53606238 7.33333333,3.56725146 L7.33333333,3.56725146 L7.33333333,11.0994152 C7.33333333,11.1306043 7.32553606,11.1578947 7.30994152,11.1812865 C7.29434698,11.2046784 7.27875244,11.2280702 7.26315789,11.251462 C7.24756335,11.2748538 7.22417154,11.294347 7.19298246,11.3099415 C7.16179337,11.3255361 7.13060429,11.3333333 7.0994152,11.3333333 L7.0994152,11.3333333 Z M12.4327485,8.66666667 L8.9005848,8.66666667 C8.86939571,8.66666667 8.83820663,8.66264454 8.80701754,8.6546003 C8.77582846,8.64655606 8.75243665,8.63046757 8.73684211,8.60633484 C8.72124756,8.58220211 8.70565302,8.55404726 8.69005848,8.52187029 C8.67446394,8.48969331 8.66666667,8.45751634 8.66666667,8.42533937 L8.66666667,8.42533937 L8.66666667,3.57466063 C8.66666667,3.54248366 8.67446394,3.51432881 8.69005848,3.49019608 C8.70565302,3.46606335 8.72124756,3.44193062 8.73684211,3.41779789 C8.75243665,3.39366516 8.77582846,3.37355455 8.80701754,3.35746606 C8.83820663,3.34137758 8.86939571,3.33333333 8.9005848,3.33333333 L8.9005848,3.33333333 L12.4327485,3.33333333 C12.4639376,3.33333333 12.4912281,3.34137758 12.5146199,3.35746606 C12.5380117,3.37355455 12.5614035,3.39366516 12.5847953,3.41779789 C12.6081871,3.44193062 12.6276803,3.46606335 12.6432749,3.49019608 C12.6588694,3.51432881 12.6666667,3.54248366 12.6666667,3.57466063 L12.6666667,3.57466063 L12.6666667,8.42533937 C12.6666667,8.45751634 12.6588694,8.48969331 12.6432749,8.52187029 C12.6276803,8.55404726 12.6081871,8.58220211 12.5847953,8.60633484 C12.5614035,8.63046757 12.5380117,8.64655606 12.5146199,8.6546003 C12.4912281,8.66264454 12.4639376,8.66666667 12.4327485,8.66666667 L12.4327485,8.66666667 Z" id="" fill="#A2A6B8"></path>
            </g>
        </g>
    </g>
</svg>