<?xml version="1.0" encoding="UTF-8"?>
<svg width="14px" height="14px" viewBox="0 0 14 14" version="1.1" xmlns="http://www.w3.org/2000/svg" xmlns:xlink="http://www.w3.org/1999/xlink">
    <title>Group 5 Copy</title>
    <g id="PMP" stroke="none" stroke-width="1" fill="none" fill-rule="evenodd">
        <g id="assets_pmp" transform="translate(-532.000000, -726.000000)">
            <g id="Group" transform="translate(539.000000, 733.000000) scale(-1, 1) translate(-539.000000, -733.000000) translate(532.000000, 726.000000)">
                <rect id="Rectangle" x="0" y="0" width="14" height="14"></rect>
                <g id="left" transform="translate(3.500000, 1.750000)" fill="#000000" fill-opacity="0.65" fill-rule="nonzero">
                    <path d="M6.40390625,10.4958984 C6.27265625,10.4958984 6.14003906,10.4521484 6.02929688,10.3646484 L0.23515625,5.70390625 C0.0943359375,5.59042969 0.0123046875,5.41953125 0.0123046875,5.23769531 C0.0123046875,5.05722656 0.0943359375,4.88496094 0.23515625,4.77285156 L6.0046875,0.13671875 C6.26171875,-0.0697265625 6.63769531,-0.0287109375 6.84414063,0.228320313 C7.05058594,0.485351563 7.00957031,0.861328125 6.75253906,1.06777344 L1.56269531,5.23769531 L6.77851562,9.43359375 C7.03554687,9.64003906 7.0765625,10.0160156 6.87011719,10.2730469 C6.75117187,10.4193359 6.57890625,10.4958984 6.40390625,10.4958984 Z" id="Shape"></path>
                </g>
            </g>
        </g>
    </g>
</svg>