<?xml version="1.0" encoding="UTF-8"?>
<svg width="16px" height="16px" viewBox="0 0 16 16" version="1.1" xmlns="http://www.w3.org/2000/svg" xmlns:xlink="http://www.w3.org/1999/xlink">
    <title>ic_server</title>
    <g id="專案管理" stroke="none" stroke-width="1" fill="none" fill-rule="evenodd">
        <g id="assets_pmp" transform="translate(-236.000000, -619.000000)" fill-rule="nonzero">
            <g id="ic_server" transform="translate(236.000000, 619.000000)">
                <rect id="Rectangle" fill="#000000" opacity="0" x="0" y="0" width="16" height="16"></rect>
                <path d="M8,1 C4.1375,1 1,4.1375 1,8 C1,11.8625 4.1375,15 8,15 C11.8625,15 15,11.8625 15,8 C15,4.1375 11.8625,1 8,1 Z M11.5,11.225 C11.5,11.45 11.325,11.625 11.1125,11.625 C7.425,11.625 4.4375,8.5625 4.4375,4.775 C4.4375,4.55 4.6125,4.375 4.825,4.375 L6.2,4.375 C6.4125,4.375 6.5875,4.55 6.5875,4.775 C6.5875,5.275 6.6625,5.7625 6.8125,6.225 C6.85,6.3625 6.825,6.525 6.7125,6.6375 L5.85,7.525 C6.4125,8.6625 7.325,9.6 8.4375,10.175 L9.3,9.2875 C9.4,9.175 9.5625,9.1375 9.7,9.1875 C10.1375,9.3375 10.6125,9.4125 11.1,9.4125 C11.3125,9.4125 11.4875,9.6 11.4875,9.8125 L11.4875,11.225 L11.5,11.225 Z" id="Shape" fill="#A2A6B8"></path>
            </g>
        </g>
    </g>
</svg>