<?xml version="1.0" encoding="UTF-8"?>
<svg width="16px" height="16px" viewBox="0 0 16 16" version="1.1" xmlns="http://www.w3.org/2000/svg" xmlns:xlink="http://www.w3.org/1999/xlink">
    <title>ic_sale</title>
    <g id="專案管理" stroke="none" stroke-width="1" fill="none" fill-rule="evenodd">
        <g id="assets_pmp" transform="translate(-236.000000, -844.000000)" fill-rule="nonzero">
            <g id="ic_sale" transform="translate(236.000000, 844.000000)">
                <rect id="Rectangle" fill="#000000" opacity="0" x="0" y="0" width="16" height="16"></rect>
                <path d="M8.861,8 C8.6875,8.2975 8.369,8.5 8,8.5 C7.64443176,8.49905807 7.3163901,8.308447 7.1395,8 L8.861,8 L8.861,8 Z M6,4 L10,4 L10,3 L6,3 L6,4 Z M12.999,4 L11,4 L11,2.666 C11,2.344 10.738,2 10.0025,2 L5.998,2 C5.2625,2 5,2.344 5,2.666 L5,4 L3.0015,4 C2.44908598,4.00027456 2.00110255,4.44758701 2,5 L2,7.024 L14,7.024 L14,5 C14,4.4485 13.551,4 12.999,4 L12.999,4 Z M12.9995,7.976 C12.9605,7.986 12.923,8 12.881,8 L9.929,8 C9.7055,8.86 8.9295,9.5 8,9.5 C7.071,9.5 6.295,8.86 6.071,8 L2,8 L2,12.5 C2,13.0515 2.4495,13.5 3.0015,13.5 L12.999,13.5 C13.5513327,13.4997249 13.9991728,13.0523322 14,12.5 L14,8 L12.9995,8 L12.9995,7.976 L12.9995,7.976 Z" id="Shape" fill="#A2A6B8"></path>
            </g>
        </g>
    </g>
</svg>