<?xml version="1.0" encoding="UTF-8"?>
<svg width="16px" height="16px" viewBox="0 0 16 16" version="1.1" xmlns="http://www.w3.org/2000/svg" xmlns:xlink="http://www.w3.org/1999/xlink">
    <title>ic_safety2</title>
    <g id="專案管理" stroke="none" stroke-width="1" fill="none" fill-rule="evenodd">
        <g id="assets_pmp" transform="translate(-236.000000, -432.000000)" fill-rule="nonzero">
            <g id="ic_safety2" transform="translate(236.000000, 432.000000)">
                <rect id="Rectangle" fill="#000000" opacity="0" x="0" y="0" width="16" height="16"></rect>
                <path d="M2,1 L14,1 C14.2761424,1 14.5,1.22385763 14.5,1.5 L14.5,14.5 C14.5,14.7761424 14.2761424,15 14,15 L2,15 C1.72385763,15 1.5,14.7761424 1.5,14.5 L1.5,1.5 C1.5,1.22385763 1.72385763,1 2,1 Z M7.344,7.5 L5.5,10.339 L8,11.0265 L6.705,13.8995 L10.5,10.0455 L8,9.6365 L9.455,7.5 L7.344,7.5 Z M13.5,2.06 L2.5,2.055 L2.5,6 L13.5,6 L13.5,2.06 Z M4.625,3 L5.625,3 L5.625,5 L4.625,5 L4.625,3 Z M7.625,3 L8.625,3 L8.625,5 L7.625,5 L7.625,3 Z M10.625,3 L11.625,3 L11.625,5 L10.625,5 L10.625,3 Z" id="Shape" fill="#A2A6B8"></path>
            </g>
        </g>
    </g>
</svg>