<?xml version="1.0" encoding="UTF-8"?>
<svg width="16px" height="16px" viewBox="0 0 16 16" version="1.1" xmlns="http://www.w3.org/2000/svg" xmlns:xlink="http://www.w3.org/1999/xlink">
    <title>ic_ui</title>
    <g id="專案管理" stroke="none" stroke-width="1" fill="none" fill-rule="evenodd">
        <g id="assets_pmp" transform="translate(-236.000000, -591.000000)" fill-rule="nonzero">
            <g id="ic_ui" transform="translate(236.000000, 591.000000)">
                <rect id="Rectangle" fill="#000000" opacity="0" x="0" y="0" width="16" height="16"></rect>
                <path d="M13.9776299,6.36717263 L8.31535433,13.9612297 L10.3842677,6.36717263 L13.9776299,6.36717263 Z M5.61573228,6.36717263 L7.68462205,13.9612297 L2.02237008,6.36717263 L5.61573228,6.36717263 Z M9.63991339,6.36717263 L8,12.3865502 L6.36008661,6.36717263 L9.63991339,6.36717263 Z M12.6087037,2.37977563 L13.991576,5.24951644 L10.7471755,5.24951644 L12.6087037,2.37977563 Z M7.995788,2.99200774 L9.46018895,5.24951644 L6.53138704,5.24951644 L7.995788,2.99200774 Z M3.38287229,2.37977563 L5.24440052,5.24951644 L2,5.24951644 L3.38287229,2.37977563 Z M7.80399304,2 L5.88789378,4.95383366 L3.97179451,2 L7.80399304,2 Z M12.0197815,2 L10.1036822,4.95383366 L8.18758295,2 L12.0197815,2 Z" id="Combined-Shape" fill="#A2A6B8"></path>
            </g>
        </g>
    </g>
</svg>