<?xml version="1.0" encoding="UTF-8"?>
<svg width="392px" height="179px" viewBox="0 0 392 179" version="1.1" xmlns="http://www.w3.org/2000/svg" xmlns:xlink="http://www.w3.org/1999/xlink">
    <title>img_no_result</title>
    <defs>
        <polygon id="path-1" points="0.8822 0.7832 244.7762 0.7832 244.7762 178 0.8822 178"></polygon>
        <polygon id="path-3" points="0 178.217 391.143 178.217 391.143 1 0 1"></polygon>
    </defs>
    <g id="專案管理" stroke="none" stroke-width="1" fill="none" fill-rule="evenodd">
        <g id="assets_pmp" transform="translate(-508.000000, -61.000000)">
            <g id="img_no_result" transform="translate(508.000000, 61.000000)">
                <g id="Group-3" transform="translate(70.000000, 0.217000)">
                    <mask id="mask-2" fill="white">
                        <use xlink:href="#path-1"></use>
                    </mask>
                    <g id="Clip-2"></g>
                    <path d="M233.8372,0.7832 L11.8212,0.7832 C5.7892,0.7832 0.8822,5.6912 0.8822,11.7232 L0.8822,139.7402 C0.8822,145.7722 5.7892,150.6792 11.8212,150.6792 L103.4152,150.6792 L103.4152,152.3982 C103.4152,157.7592 101.7602,162.8042 98.8482,167.0082 L80.9932,167.0082 C77.9632,167.0082 75.4982,169.4732 75.4982,172.5042 C75.4982,175.5342 77.9632,178.0002 80.9932,178.0002 L166.3222,178.0002 C169.3532,178.0002 171.8182,175.5342 171.8182,172.5042 C171.8182,169.4732 169.3532,167.0082 166.3222,167.0082 L146.8032,167.0082 C143.8932,162.8042 142.2422,157.7582 142.2422,152.3982 L142.2422,150.6792 L233.8372,150.6792 C239.8692,150.6792 244.7762,145.7722 244.7762,139.7402 L244.7762,11.7232 C244.7762,5.6912 239.8692,0.7832 233.8372,0.7832" id="Fill-1" fill="#FFFFFF" mask="url(#mask-2)"></path>
                </g>
                <path d="M41.1145,14.4773 L35.3225,9.3533 L40.4465,3.5613 C40.9035,3.0443 40.8555,2.2543 40.3385,1.7963 C39.8225,1.3413 39.0305,1.3853 38.5735,1.9053 L33.4495,7.6973 L27.6575,2.5733 C27.1415,2.1173 26.3505,2.1633 25.8925,2.6813 C25.4355,3.1983 25.4835,3.9883 26.0015,4.4463 L31.7935,9.5703 L26.6695,15.3633 C26.2125,15.8793 26.2605,16.6693 26.7775,17.1273 C27.0145,17.3373 27.3105,17.4413 27.6055,17.4413 C27.9505,17.4413 28.2955,17.2983 28.5425,17.0193 L33.6665,11.2273 L39.4585,16.3503 C39.6955,16.5603 39.9915,16.6643 40.2865,16.6643 C40.6315,16.6643 40.9755,16.5213 41.2225,16.2423 C41.6795,15.7253 41.6325,14.9353 41.1145,14.4773" id="Fill-4" fill="#9FBBD4"></path>
                <path d="M360.6448,119.4416 L354.8528,114.3176 L359.9768,108.5256 C360.4338,108.0086 360.3858,107.2186 359.8688,106.7606 C359.3538,106.3056 358.5618,106.3496 358.1038,106.8696 L352.9798,112.6616 L347.1878,107.5376 C346.6728,107.0816 345.8808,107.1276 345.4228,107.6456 C344.9658,108.1626 345.0138,108.9526 345.5318,109.4106 L351.3238,114.5346 L346.1998,120.3276 C345.7428,120.8436 345.7908,121.6336 346.3078,122.0916 C346.5448,122.3016 346.8408,122.4056 347.1358,122.4056 C347.4808,122.4056 347.8258,122.2626 348.0728,121.9836 L353.1968,116.1916 L358.9888,121.3146 C359.2258,121.5246 359.5218,121.6286 359.8168,121.6286 C360.1618,121.6286 360.5058,121.4856 360.7528,121.2066 C361.2098,120.6896 361.1628,119.8996 360.6448,119.4416" id="Fill-6" fill="#9FBBD4"></path>
                <line x1="93.4788" y1="95.0017" x2="82.3888" y2="95.0017" id="Stroke-8" stroke="#9FBBD4" stroke-width="3" stroke-linecap="round"></line>
                <line x1="184.6282" y1="51.6003" x2="250.6722" y2="51.6003" id="Stroke-10" stroke="#9FBBD4" stroke-width="3" stroke-linecap="round"></line>
                <line x1="238.6995" y1="115.8029" x2="284.0765" y2="115.8029" id="Stroke-12" stroke="#9FBBD4" stroke-width="3" stroke-linecap="round"></line>
                <line x1="260.0608" y1="51.6003" x2="271.1508" y2="51.6003" id="Stroke-14" stroke="#9FBBD4" stroke-width="3" stroke-linecap="round"></line>
                <line x1="293.512" y1="115.8029" x2="304.602" y2="115.8029" id="Stroke-16" stroke="#9FBBD4" stroke-width="3" stroke-linecap="round"></line>
                <line x1="187.8831" y1="75.0315" x2="142.5041" y2="75.0315" id="Stroke-18" stroke="#9FBBD4" stroke-width="3" stroke-linecap="round"></line>
                <line x1="139.0471" y1="32.3571" x2="99.0001" y2="32.3571" id="Stroke-20" stroke="#9FBBD4" stroke-width="3" stroke-linecap="round"></line>
                <line x1="133.719" y1="114.4265" x2="122.629" y2="114.4265" id="Stroke-22" stroke="#9FBBD4" stroke-width="3" stroke-linecap="round"></line>
                <path d="M61.3899,176.59 L71.5219,176.59 C72.1529,176.59 72.6639,176.079 72.6639,175.447 L72.6639,105.565 C72.6639,104.934 72.1529,104.423 71.5219,104.423 L61.3899,104.423 C60.7589,104.423 60.2469,104.934 60.2469,105.565 L60.2469,175.447 C60.2469,176.079 60.7589,176.59 61.3899,176.59" id="Fill-24" fill="#FFFFFF"></path>
                <path d="M61.3899,176.59 L71.5219,176.59 C72.1529,176.59 72.6639,176.079 72.6639,175.447 L72.6639,105.565 C72.6639,104.934 72.1529,104.423 71.5219,104.423 L61.3899,104.423 C60.7589,104.423 60.2469,104.934 60.2469,105.565 L60.2469,175.447 C60.2469,176.079 60.7589,176.59 61.3899,176.59 Z" id="Stroke-26" stroke="#9FBBD4" stroke-width="3"></path>
                <path d="M41.0188,176.59 L58.7138,176.59 C59.3448,176.59 59.8568,176.079 59.8568,175.447 L59.8568,112.314 C59.8568,111.683 59.3448,111.172 58.7138,111.172 L41.0188,111.172 C40.3878,111.172 39.8758,111.683 39.8758,112.314 L39.8758,175.447 C39.8758,176.079 40.3878,176.59 41.0188,176.59" id="Fill-28" fill="#FFFFFF"></path>
                <path d="M41.0188,176.59 L58.7138,176.59 C59.3448,176.59 59.8568,176.079 59.8568,175.447 L59.8568,112.314 C59.8568,111.683 59.3448,111.172 58.7138,111.172 L41.0188,111.172 C40.3878,111.172 39.8758,111.683 39.8758,112.314 L39.8758,175.447 C39.8758,176.079 40.3878,176.59 41.0188,176.59 Z" id="Stroke-30" stroke="#9FBBD4" stroke-width="3"></path>
                <path d="M33.6761,176.59 L38.3571,176.59 C38.9881,176.59 39.4991,176.079 39.4991,175.447 L39.4991,122.289 C39.4991,121.658 38.9881,121.146 38.3571,121.146 L33.6761,121.146 C33.0451,121.146 32.5331,121.658 32.5331,122.289 L32.5331,175.447 C32.5331,176.079 33.0451,176.59 33.6761,176.59" id="Fill-32" fill="#FFFFFF"></path>
                <path d="M33.6761,176.59 L38.3571,176.59 C38.9881,176.59 39.4991,176.079 39.4991,175.447 L39.4991,122.289 C39.4991,121.658 38.9881,121.146 38.3571,121.146 L33.6761,121.146 C33.0451,121.146 32.5331,121.658 32.5331,122.289 L32.5331,175.447 C32.5331,176.079 33.0451,176.59 33.6761,176.59 Z" id="Stroke-34" stroke="#9FBBD4" stroke-width="3"></path>
                <path d="M14.7825,175.5222 L19.3585,176.5062 C19.9745,176.6392 20.5825,176.2472 20.7155,175.6302 L31.6555,124.7772 C31.7885,124.1602 31.3955,123.5522 30.7795,123.4202 L26.2035,122.4352 C25.5865,122.3032 24.9785,122.6952 24.8455,123.3122 L13.9055,174.1652 C13.7725,174.7822 14.1655,175.3892 14.7825,175.5222" id="Fill-36" fill="#FFFFFF"></path>
                <path d="M14.7825,175.5222 L19.3585,176.5062 C19.9745,176.6392 20.5825,176.2472 20.7155,175.6302 L31.6555,124.7772 C31.7885,124.1602 31.3955,123.5522 30.7795,123.4202 L26.2035,122.4352 C25.5865,122.3032 24.9785,122.6952 24.8455,123.3122 L13.9055,174.1652 C13.7725,174.7822 14.1655,175.3892 14.7825,175.5222 Z" id="Stroke-38" stroke="#9FBBD4" stroke-width="3"></path>
                <mask id="mask-4" fill="white">
                    <use xlink:href="#path-3"></use>
                </mask>
                <g id="Clip-41"></g>
                <polygon id="Fill-40" fill="#9FBBD4" mask="url(#mask-4)" points="39.876 126.973 60.563 126.973 60.563 124.485 39.876 124.485"></polygon>
                <polygon id="Fill-42" fill="#9FBBD4" mask="url(#mask-4)" points="59.741 117.268 72.665 117.268 72.665 114.78 59.741 114.78"></polygon>
                <polygon id="Fill-43" fill="#9FBBD4" mask="url(#mask-4)" points="59.741 133.693 72.665 133.693 72.665 131.204 59.741 131.204"></polygon>
                <polygon id="Fill-44" fill="#9FBBD4" mask="url(#mask-4)" points="39.876 164.135 60.563 164.135 60.563 161.646 39.876 161.646"></polygon>
                <path d="M310.7249,165.4421 L310.7249,175.5741 C310.7249,176.2051 311.2359,176.7171 311.8679,176.7171 L381.7489,176.7171 C382.3799,176.7171 382.8919,176.2051 382.8919,175.5741 L382.8919,165.4421 C382.8919,164.8111 382.3799,164.3001 381.7489,164.3001 L311.8679,164.3001 C311.2359,164.3001 310.7249,164.8111 310.7249,165.4421" id="Fill-45" fill="#FFFFFF" mask="url(#mask-4)"></path>
                <path d="M310.7249,165.4421 L310.7249,175.5741 C310.7249,176.2051 311.2359,176.7171 311.8679,176.7171 L381.7489,176.7171 C382.3799,176.7171 382.8919,176.2051 382.8919,175.5741 L382.8919,165.4421 C382.8919,164.8111 382.3799,164.3001 381.7489,164.3001 L311.8679,164.3001 C311.2359,164.3001 310.7249,164.8111 310.7249,165.4421 Z" id="Stroke-46" stroke="#9FBBD4" stroke-width="3" mask="url(#mask-4)"></path>
                <polygon id="Fill-47" fill="#9FBBD4" mask="url(#mask-4)" points="375.694 176.717 378.182 176.717 378.182 163.793 375.694 163.793"></polygon>
                <polygon id="Fill-48" fill="#9FBBD4" mask="url(#mask-4)" points="359.27 176.717 361.758 176.717 361.758 163.793 359.27 163.793"></polygon>
                <path d="M371.5667,163.1184 L371.5667,152.9864 C371.5667,152.3554 371.0557,151.8444 370.4247,151.8444 L323.8967,151.8444 C323.2657,151.8444 322.7537,152.3554 322.7537,152.9864 L322.7537,163.1184 C322.7537,163.7494 323.2657,164.2604 323.8967,164.2604 L370.4247,164.2604 C371.0557,164.2604 371.5667,163.7494 371.5667,163.1184" id="Fill-49" fill="#FFFFFF" mask="url(#mask-4)"></path>
                <path d="M371.5667,163.1184 L371.5667,152.9864 C371.5667,152.3554 371.0557,151.8444 370.4247,151.8444 L323.8967,151.8444 C323.2657,151.8444 322.7537,152.3554 322.7537,152.9864 L322.7537,163.1184 C322.7537,163.7494 323.2657,164.2604 323.8967,164.2604 L370.4247,164.2604 C371.0557,164.2604 371.5667,163.7494 371.5667,163.1184 Z" id="Stroke-50" stroke="#9FBBD4" stroke-width="3" mask="url(#mask-4)"></path>
                <polygon id="Fill-51" fill="#9FBBD4" mask="url(#mask-4)" points="331.024 164.514 333.513 164.514 333.513 151.59 331.024 151.59"></polygon>
                <path d="M299.0071,141.26 L88.3031,141.26 C84.4581,141.26 81.3421,138.143 81.3421,134.299 L81.3421,16.424 C81.3421,12.579 84.4581,9.462 88.3031,9.462 L299.0071,9.462 C302.8521,9.462 305.9681,12.579 305.9681,16.424 L305.9681,134.299 C305.9681,138.143 302.8521,141.26 299.0071,141.26 Z" id="Stroke-52" stroke="#9FBBD4" stroke-width="2" mask="url(#mask-4)"></path>
                <path d="M311.7249,139.9572 C311.7249,144.3082 308.1849,147.8482 303.8339,147.8482 L81.8189,147.8482 C77.4679,147.8482 73.9279,144.3082 73.9279,139.9572 L73.9279,11.9402 C73.9279,7.5892 77.4679,4.0502 81.8189,4.0502 L303.8339,4.0502 C308.1849,4.0502 311.7249,7.5892 311.7249,11.9402 L311.7249,139.9572 Z M213.1669,167.2252 L172.4849,167.2252 C175.0369,162.8932 176.4619,157.8872 176.4619,152.6152 L176.4619,150.8962 L209.1909,150.8962 L209.1909,152.6152 C209.1909,157.8872 210.6159,162.8922 213.1669,167.2252 L213.1669,167.2252 Z M236.3189,170.2252 C237.6949,170.2252 238.8149,171.3452 238.8149,172.7212 C238.8149,174.0972 237.6949,175.2172 236.3189,175.2172 L150.9899,175.2172 C149.6139,175.2172 148.4949,174.0972 148.4949,172.7212 C148.4949,171.3452 149.6139,170.2252 150.9899,170.2252 L236.3189,170.2252 Z M303.8339,1.0002 L81.8189,1.0002 C75.7869,1.0002 70.8779,5.9082 70.8779,11.9402 L70.8779,139.9572 C70.8779,145.9892 75.7869,150.8962 81.8189,150.8962 L173.4119,150.8962 L173.4119,152.6152 C173.4119,157.9762 171.7559,163.0212 168.8439,167.2252 L150.9899,167.2252 C147.9589,167.2252 145.4949,169.6902 145.4949,172.7212 C145.4949,175.7512 147.9589,178.2172 150.9899,178.2172 L236.3189,178.2172 C239.3489,178.2172 241.8149,175.7512 241.8149,172.7212 C241.8149,169.6902 239.3489,167.2252 236.3189,167.2252 L216.7989,167.2252 C213.8889,163.0212 212.2399,157.9752 212.2399,152.6152 L212.2399,150.8962 L303.8339,150.8962 C309.8669,150.8962 314.7739,145.9892 314.7739,139.9572 L314.7739,11.9402 C314.7739,5.9082 309.8669,1.0002 303.8339,1.0002 L303.8339,1.0002 Z" id="Fill-53" fill="#9FBBD4" mask="url(#mask-4)"></path>
                <path d="M292.5442,175.465 C291.9522,169.628 286.1752,165.045 279.1252,165.045 C272.0742,165.045 266.2972,169.628 265.7062,175.465 L292.5442,175.465 Z" id="Fill-54" fill="#FFFFFF" mask="url(#mask-4)"></path>
                <path d="M277.6009,165.0446 L277.6009,167.6026 C277.6009,168.4446 278.2839,169.1276 279.1249,169.1276 C279.9669,169.1276 280.6499,168.4446 280.6499,167.6026 L280.6499,165.0446 C286.8619,165.6606 291.8109,169.9906 292.6019,175.4586 L295.6869,175.4586 C294.8369,167.8626 287.7339,161.9156 279.1249,161.9156 C270.5159,161.9156 263.4129,167.8626 262.5629,175.4586 L265.6489,175.4586 C266.4399,169.9906 271.3879,165.6606 277.6009,165.0446" id="Fill-55" fill="#9FBBD4" mask="url(#mask-4)"></path>
                <line x1="1.5003" y1="176.6794" x2="389.6433" y2="176.6794" id="Stroke-56" stroke="#9FBBD4" stroke-width="3" stroke-linecap="round" mask="url(#mask-4)"></line>
            </g>
        </g>
    </g>
</svg>