<svg xmlns="http://www.w3.org/2000/svg" width="153" height="31" viewBox="0 0 153 31">
    <g fill="none" fill-rule="evenodd">
        <g fill="#FFF" fill-rule="nonzero">
            <g>
                <path d="M45.14.654c1.133 0 1.758.62 1.758 1.746v2.64c0 .853-.156 1.436-.547 2.173l-11.05 20.92c-.469.854-1.093 1.242-2.07 1.242H29.64c-1.406 0-1.913-.854-1.25-2.096L39.245 7.058h-9.801c-1.133 0-1.757-.621-1.757-1.747v-2.91c0-1.126.624-1.747 1.757-1.747H45.14zM19.78.625c1.112 0 2.013.901 2.013 2.013v24.725c0 1.111-.901 2.012-2.013 2.012h-3.35c-1.112 0-2.013-.901-2.013-2.012V2.637c0-1.111.901-2.012 2.013-2.012h3.35zm-13.16 0c1.111 0 2.012.901 2.012 2.013v24.725c0 1.111-.9 2.012-2.012 2.012H3.27c-1.112 0-2.013-.901-2.013-2.012V2.637c0-1.111.9-2.012 2.012-2.012h3.35zm63.626.029c1.133 0 1.758.62 1.758 1.746v2.64c0 .853-.157 1.436-.547 2.173l-11.05 20.92c-.469.854-1.094 1.242-2.07 1.242h-3.592c-1.406 0-1.914-.854-1.25-2.096L64.35 7.058h-9.8c-1.133 0-1.758-.621-1.758-1.747v-2.91c0-1.126.625-1.747 1.757-1.747h15.697z" transform="translate(-114 -336) translate(114.994 336.588)"/>
                <g>
                    <path d="M1.88 28.75C.748 28.75 0 28.007 0 26.881v-11.9c0-1.444 1.172-2.616 2.616-2.616l10.834-.002c1.446 0 2.169-.959 2.169-2.875 0-1.917-.723-2.875-2.17-2.875H2.617C1.171 6.612 0 5.44 0 3.995V1.87C0 .743.748 0 1.88 0h11.714c2.46 0 4.641.737 6.281 2.174 1.289 1.164 2.83 3.782 2.83 7.314 0 2.833-.784 5.662-2.892 7.33-1.718 1.36-3.759 2.157-6.219 2.157H7.376v7.906c0 1.126-.748 1.869-1.88 1.869H1.88z" transform="translate(-114 -336) translate(114.994 336.588) translate(79.207 .625)"/>
                    <path d="M22.705 9.488c0 .974-.092 1.948-.3 2.874H13.45c1.442 0 2.169-1.36 2.169-2.874 0-1.32-.727-2.875-2.17-2.875l8.9-.002c.222.87.356 1.833.356 2.877z" transform="translate(-114 -336) translate(114.994 336.588) translate(79.207 .625)"/>
                </g>
                <path d="M116.573.625c1.054 0 1.679.466 2.03 1.397l8.903 25.306c.43 1.242-.117 2.018-1.445 2.018h-4.178c-1.054 0-1.679-.465-1.991-1.436l-1.328-3.881h-8.317l-1.366 3.881c-.352.97-.977 1.436-2.03 1.436h-4.218c-1.328 0-1.874-.776-1.445-2.018l8.942-25.306c.352-.931.976-1.397 1.992-1.397h4.45zm15.582 0c.938 0 1.601.35 2.109 1.164l4.06 6.482 4.062-6.482c.507-.815 1.171-1.164 2.108-1.164h4.647c1.445 0 1.952.893 1.171 2.096l-8.278 13.274V27.6c0 1.125-.624 1.746-1.757 1.746h-3.865c-1.133 0-1.758-.62-1.758-1.746V15.995L126.337 2.72c-.742-1.203-.273-2.096 1.172-2.096h4.646zm-17.808 9.431l-2.577 7.957h5.428l-2.85-7.957z" transform="translate(-114 -336) translate(114.994 336.588)"/>
            </g>
        </g>
    </g>
</svg>
