<svg xmlns="http://www.w3.org/2000/svg" width="177" height="35" viewBox="0 0 177 35">
    <defs>
        <linearGradient id="chk2iwxgca" x1="66.602%" x2="66.602%" y1="97.243%" y2="4.303%">
            <stop offset="0%" stop-color="#242666"/>
            <stop offset="100%" stop-color="#32AAFF"/>
        </linearGradient>
    </defs>
    <g fill="none" fill-rule="evenodd">
        <g fill-rule="nonzero">
            <g>
                <g>
                    <g>
                        <path fill="#32AAFF" d="M50.813.034c1.311 0 2.035.724 2.035 2.037v3.08c0 .996-.181 1.675-.633 2.535L39.42 32.093c-.543.996-1.266 1.449-2.397 1.449h-4.16c-1.627 0-2.215-.997-1.446-2.446l12.57-23.591h-11.35c-1.31 0-2.034-.725-2.034-2.038V2.071c0-1.313.724-2.037 2.035-2.037h18.175zM21.766 0c1.112 0 2.013.901 2.013 2.013v29.516c0 1.112-.901 2.013-2.013 2.013h-4.515c-1.112 0-2.013-.901-2.013-2.013V2.012C15.238.901 16.14 0 17.251 0h4.515zM6.528 0C7.639 0 8.54.901 8.54 2.013v29.516c0 1.112-.9 2.013-2.012 2.013H2.013C.9 33.542 0 32.64 0 31.529V2.012C0 .901.901 0 2.013 0h4.515zm73.355.034c1.311 0 2.035.724 2.035 2.037v3.08c0 .996-.181 1.675-.633 2.535L68.489 32.093c-.542.996-1.266 1.449-2.396 1.449h-4.16c-1.627 0-2.215-.997-1.446-2.446L73.056 7.505H61.707c-1.31 0-2.034-.725-2.034-2.038V2.071c0-1.313.723-2.037 2.034-2.037h18.176z" transform="translate(-985 -184) translate(914 184) translate(71) translate(1.455 .73)"/>
                        <g>
                            <path fill="#242666" d="M2.177 33.542C.866 33.542 0 32.675 0 31.362v-14.32c0-1.444 1.172-2.616 2.616-2.617l12.957-.002c1.675 0 2.512-1.118 2.512-3.354 0-2.236-.837-3.354-2.512-3.354H2.616C1.171 7.715 0 6.543 0 5.098V2.18C0 .867.866 0 2.177 0H15.74c2.848 0 5.373.86 7.272 2.536 1.492 1.358 3.277 4.412 3.277 8.533 0 3.305-.907 6.606-3.349 8.553-1.99 1.585-4.352 2.515-7.2 2.515h-7.2v9.224c0 1.314-.867 2.18-2.178 2.18H2.177z" transform="translate(-985 -184) translate(914 184) translate(71) translate(1.455 .73) translate(90.258)"/>
                            <path fill="url(#chk2iwxgca)" d="M26.29 11.069c0 1.137-.107 2.274-.347 3.355l-10.37-.001c1.67 0 2.512-1.588 2.512-3.354 0-1.54-.842-3.354-2.512-3.354l10.304-.002c.258 1.015.413 2.139.413 3.356z" transform="translate(-985 -184) translate(914 184) translate(71) translate(1.455 .73) translate(90.258)"/>
                        </g>
                        <path fill="#242666" d="M133.524 0c1.22 0 1.944.543 2.351 1.63l10.309 29.524c.497 1.448-.136 2.354-1.673 2.354h-4.838c-1.22 0-1.944-.543-2.306-1.675l-1.537-4.528h-9.63l-1.583 4.528c-.407 1.132-1.13 1.675-2.35 1.675h-4.884c-1.537 0-2.17-.906-1.673-2.355L126.064 1.63C126.471.543 127.194 0 128.37 0h5.154zm18.043 0c1.085 0 1.854.408 2.441 1.358l4.703 7.562 4.702-7.562C164 .408 164.769 0 165.854 0h5.38c1.673 0 2.261 1.041 1.357 2.445l-9.585 15.486v13.54c0 1.313-.724 2.037-2.035 2.037h-4.476c-1.311 0-2.034-.724-2.034-2.038V17.931l-9.63-15.486C143.97 1.041 144.513 0 146.186 0h5.38zm-20.62 11.003l-2.984 9.283h6.285l-3.301-9.283z" transform="translate(-985 -184) translate(914 184) translate(71) translate(1.455 .73)"/>
                    </g>
                </g>
            </g>
        </g>
    </g>
</svg>
